<?xml version="1.0" standalone="no"?><!-- Generator: Adobe Fireworks CS5, Export SVG Extension by Aaron Beall (http://fireworks.abeall.com) . Version: 0.6.1  --><!DOCTYPE svg PUBLIC "-//W3C//DTD SVG 1.1//EN" "http://www.w3.org/Graphics/SVG/1.1/DTD/svg11.dtd"><svg id="Untitled-Page%201" viewBox="0 0 386 213" style="background-color:#ffffff" version="1.1"	xmlns="http://www.w3.org/2000/svg" xmlns:xlink="http://www.w3.org/1999/xlink" xml:space="preserve"	x="0px" y="0px" width="386px" height="213px">	<path d="M 59.1179 47.0039 C 84.0444 30.4469 121.7197 1.679 152.1116 0 C 158.652 0.4847 165.2014 0.9752 170.2404 3.9858 C 180.2137 11.3088 176.9151 20.2688 178.8501 29.6246 C 183.0089 44.4081 197.1148 49.4054 211.6048 49.1741 C 269.1705 46.9495 325.7257 -10.9531 386 18.1158 L 386 196.8207 C 385.6017 197.0997 385.1872 197.3683 384.7552 197.6249 C 364.0506 210.5505 350.4343 199.0051 335.6114 186.0581 C 322.0922 173.206 297.0912 155.551 288.4964 182.5402 C 286.7033 188.9832 288.7303 197.0323 285.6272 203.3772 C 279.7096 212.1459 266.523 212.4751 255.959 213 C 232.3042 212.5496 224.5125 193.5516 211.1887 178.0887 C 200.3895 164.124 179.705 141.5263 162.8273 156.0519 C 147.3615 169.3718 150.3085 182.7495 127.7703 185.0145 C 114.5841 185.3499 101.6932 181.7525 90.3075 175.6373 C 73.7841 167.8267 60.4603 152.3596 45.636 139.4106 C 29.5031 126.3647 12.0668 113.2236 3.0559 92.8129 C -12.6236 56.1226 35.9907 57.1166 59.1179 47.0039 Z" fill="#f8f8f7"/></svg>