<?xml version="1.0" standalone="no"?>
<!DOCTYPE svg PUBLIC "-//W3C//DTD SVG 20010904//EN"
 "http://www.w3.org/TR/2001/REC-SVG-20010904/DTD/svg10.dtd">
<svg version="1.0" xmlns="http://www.w3.org/2000/svg"
 width="300.000000pt" height="300.000000pt" viewBox="0 0 300.000000 300.000000"
 preserveAspectRatio="xMidYMid meet">
<metadata>
Created by potrace 1.11, written by Peter Selinger 2001-2013
</metadata>
<g transform="translate(0.000000,300.000000) scale(0.100000,-0.100000)"
fill="#000000" stroke="none">
<path d="M0 1500 l0 -1297 151 0 c132 0 149 2 144 16 -4 13 -2 12 9 -1 14 -19
42 -25 30 -7 -4 8 -1 8 12 1 26 -13 317 -12 326 2 5 7 8 7 8 1 0 -6 14 -12 31
-13 20 -2 28 1 24 9 -5 8 -1 8 14 0 12 -7 42 -11 67 -10 36 2 44 6 39 18 -4
14 -4 14 8 1 6 -8 19 -16 26 -18 25 -6 63 8 58 21 -3 7 -8 21 -12 32 -6 16 -5
17 4 5 9 -13 11 -13 11 2 0 9 -4 19 -8 22 -9 5 -8 47 1 63 4 7 3 14 -3 18 -5
3 -10 12 -10 18 0 7 4 6 10 -3 8 -13 10 -13 10 2 0 9 -5 20 -10 23 -7 4 -7 13
0 26 8 14 7 19 -1 19 -9 0 -9 3 0 14 8 10 9 16 1 21 -5 3 -10 12 -10 18 0 7 4
6 10 -3 8 -13 10 -13 10 2 0 9 -4 19 -8 22 -9 5 -8 47 1 63 4 7 3 14 -3 18 -5
3 -10 12 -10 18 0 7 4 6 10 -3 8 -13 10 -13 10 2 0 9 -4 19 -8 22 -9 5 -8 47
1 63 4 7 3 14 -3 18 -5 3 -10 12 -10 18 0 7 4 6 10 -3 8 -13 10 -13 10 2 0 9
-5 20 -10 23 -8 5 -8 11 0 20 8 9 8 15 0 20 -5 3 -10 12 -10 18 0 7 4 6 10 -3
8 -13 10 -13 10 2 0 9 -4 19 -8 22 -9 5 -8 47 1 63 4 7 3 14 -3 18 -5 3 -10
12 -10 18 0 7 4 6 10 -3 8 -13 10 -13 10 2 0 9 -4 19 -8 22 -9 5 -8 47 1 63 4
7 3 14 -3 18 -5 3 -10 12 -10 18 0 8 3 8 9 -2 6 -9 10 -4 13 17 2 17 1 29 -3
26 -4 -2 -10 0 -14 6 -3 5 -1 10 4 10 6 0 11 5 11 11 0 5 -4 8 -8 5 -4 -2 -9
5 -9 17 -2 15 0 18 6 9 6 -10 10 -8 14 7 3 12 1 19 -3 16 -5 -3 -11 -1 -15 5
-3 5 -1 10 4 10 6 0 11 5 11 11 0 5 -4 8 -8 5 -4 -2 -9 5 -9 17 -2 15 0 18 6
9 6 -10 10 -8 14 7 3 12 1 19 -3 16 -5 -3 -11 -1 -15 5 -3 5 -1 10 4 10 6 0
11 5 11 11 0 5 -4 8 -8 5 -4 -2 -9 5 -9 17 -2 15 0 18 6 9 6 -10 10 -8 14 7 3
12 1 19 -3 16 -5 -3 -11 -1 -15 5 -3 5 -1 10 4 10 6 0 11 5 11 11 0 5 -4 8 -9
5 -11 -7 -9 13 2 32 5 6 4 12 -1 12 -10 0 -9 30 1 47 4 6 3 14 -3 18 -5 3 -10
12 -10 18 0 7 4 6 10 -3 8 -13 10 -13 10 2 0 9 -4 19 -8 22 -9 5 -8 47 1 63 4
7 3 14 -3 18 -5 3 -10 12 -10 18 0 7 4 6 10 -3 8 -13 10 -13 10 2 0 9 -5 20
-10 23 -7 4 -7 13 0 24 5 10 7 30 4 45 -3 21 -1 26 8 20 9 -6 9 -3 -1 9 -12
15 -12 19 5 32 18 13 18 14 -6 10 -24 -4 -24 -4 -6 10 18 14 18 15 2 15 -9 0
-14 5 -11 10 4 6 11 7 17 4 6 -4 4 3 -5 16 -12 18 -13 26 -4 43 9 15 9 21 0
24 -7 3 -13 9 -13 14 0 6 4 8 8 5 4 -2 8 4 8 14 0 10 -4 16 -8 14 -12 -8 -9
11 4 24 9 9 8 12 -7 13 -11 0 -15 3 -8 5 8 4 9 13 4 27 -4 12 -6 27 -4 34 2 6
-1 14 -6 18 -6 3 -11 11 -11 16 0 6 5 7 11 4 6 -4 5 2 -3 14 -7 12 -17 21 -22
21 -4 0 -2 8 5 17 8 9 9 14 3 10 -7 -4 -15 0 -18 9 -3 8 -2 13 2 10 4 -2 8 4
8 14 0 10 -5 18 -10 17 -6 -1 -10 3 -11 10 0 6 -4 15 -9 20 -5 5 -6 3 -2 -4 4
-7 2 -13 -3 -13 -14 0 -14 17 -1 25 6 4 2 18 -11 36 -11 16 -22 37 -24 47 -2
9 -4 19 -5 22 -1 3 -2 9 -1 13 1 5 -3 6 -9 2 -8 -5 -7 -12 2 -23 12 -15 11
-16 -4 -3 -10 7 -15 17 -12 22 3 5 -2 12 -10 15 -9 3 -16 10 -16 16 0 5 5 6
10 3 6 -3 10 -1 10 4 0 11 -15 15 -34 12 -5 -1 -3 5 4 14 7 8 10 18 6 22 -3 3
-6 1 -6 -5 0 -7 -11 -2 -25 10 -25 22 -35 45 -13 32 7 -4 8 -3 4 5 -6 9 -11 9
-22 0 -12 -10 -13 -9 -8 5 3 9 1 16 -6 16 -6 0 -8 5 -5 10 3 6 -4 10 -17 10
-18 0 -20 2 -8 10 13 8 12 10 -4 10 -11 0 -16 5 -13 14 4 10 0 12 -14 9 -11
-3 -19 0 -19 6 0 7 5 9 12 5 7 -5 8 -3 4 5 -5 7 -10 10 -13 7 -3 -3 -13 5 -23
17 -15 18 -20 19 -33 9 -13 -11 -15 -10 -9 10 5 21 4 22 -13 8 -11 -9 -16 -10
-11 -2 4 6 3 12 -3 12 -5 0 -13 9 -16 21 -4 11 -9 18 -12 15 -4 -3 -13 0 -22
6 -13 10 -14 10 -3 -2 6 -8 12 -19 12 -24 0 -6 -7 0 -16 12 -9 14 -22 21 -31
18 -8 -3 -12 -2 -9 2 2 4 1 14 -5 22 -6 10 -9 11 -9 3 0 -7 -5 -13 -11 -13 -6
0 -9 7 -6 15 5 11 1 12 -19 5 -16 -6 -23 -6 -19 0 3 5 -4 14 -15 20 -11 6 -20
7 -20 3 0 -4 -4 -2 -9 6 -5 8 -27 14 -52 14 -24 0 -47 5 -50 10 -10 14 -72 17
-88 4 -10 -8 -13 -9 -8 -1 4 8 -12 11 -53 11 l-60 -1 0 -1296z m196 1264 c1
-9 0 -13 -4 -10 -3 4 -7 14 -8 22 -1 9 0 13 4 10 3 -4 7 -14 8 -22z m392 -169
c-3 -3 -9 2 -12 12 -6 14 -5 15 5 6 7 -7 10 -15 7 -18z m317 -484 c3 -5 2 -12
-3 -15 -5 -3 -9 1 -9 9 0 17 3 19 12 6z m-415 -1875 c0 -2 -8 -10 -17 -17 -16
-13 -17 -12 -4 4 13 16 21 21 21 13z m-400 -16 c0 -5 -5 -10 -11 -10 -5 0 -7
5 -4 10 3 6 8 10 11 10 2 0 4 -4 4 -10z m175 0 c3 -5 1 -10 -4 -10 -6 0 -11 5
-11 10 0 6 2 10 4 10 3 0 8 -4 11 -10z m125 0 c0 -5 -5 -10 -11 -10 -5 0 -7 5
-4 10 3 6 8 10 11 10 2 0 4 -4 4 -10z m180 0 c0 -5 -5 -10 -11 -10 -5 0 -7 5
-4 10 3 6 8 10 11 10 2 0 4 -4 4 -10z m220 0 c0 -5 -5 -10 -11 -10 -5 0 -7 5
-4 10 3 6 8 10 11 10 2 0 4 -4 4 -10z m35 0 c3 -5 1 -10 -4 -10 -6 0 -11 5
-11 10 0 6 2 10 4 10 3 0 8 -4 11 -10z m105 -4 c-7 -7 -13 -7 -20 0 -6 6 -3
10 10 10 13 0 16 -4 10 -10z"/>
<path d="M2014 2788 c-3 -4 -10 -6 -15 -3 -5 4 -9 -2 -9 -11 0 -14 -3 -15 -12
-6 -17 17 -28 15 -28 -4 0 -8 -5 -12 -10 -9 -6 4 -8 11 -5 16 4 5 -2 6 -11 2
-11 -4 -13 -8 -6 -11 7 -2 10 -8 6 -13 -3 -5 -14 -4 -27 3 -20 10 -21 10 -8
-6 12 -14 12 -16 -4 -10 -14 6 -16 4 -10 -7 4 -8 5 -11 0 -7 -4 4 -14 3 -21
-3 -8 -7 -14 -6 -20 2 -5 8 -3 9 6 4 9 -5 11 -4 6 3 -8 13 -46 -5 -46 -22 0
-4 8 -2 18 5 15 13 16 12 3 -4 -10 -12 -17 -14 -26 -7 -9 7 -16 6 -25 -5 -7
-8 -17 -12 -23 -8 -7 4 -8 0 -3 -12 5 -15 4 -16 -8 -6 -11 9 -16 9 -22 0 -4
-8 -3 -9 4 -5 7 4 12 2 12 -3 0 -6 -12 -11 -26 -11 -24 0 -25 -2 -13 -17 13
-15 12 -15 -7 -5 -17 9 -24 9 -33 -2 -6 -7 -9 -15 -7 -17 2 -2 -8 -13 -22 -23
l-27 -20 20 25 20 24 -21 -18 c-11 -9 -23 -14 -26 -11 -3 3 -5 -3 -4 -13 0
-12 -6 -18 -19 -18 -13 0 -19 -6 -17 -16 1 -9 -8 -24 -20 -35 l-23 -19 20 25
c12 15 14 20 4 12 -9 -6 -20 -8 -24 -4 -5 4 -5 2 -1 -5 4 -7 -3 -22 -14 -33
-12 -12 -18 -26 -13 -33 5 -8 2 -8 -9 1 -13 10 -18 10 -24 1 -4 -8 -3 -9 4 -5
7 4 12 2 12 -3 0 -6 -7 -11 -16 -11 -11 0 -14 -5 -10 -16 6 -15 4 -15 -11 -3
-9 8 -14 9 -10 3 3 -6 -1 -20 -9 -30 -9 -10 -12 -13 -8 -5 4 9 3 12 -4 7 -6
-4 -9 -13 -6 -20 3 -9 -3 -17 -17 -21 -17 -6 -19 -9 -8 -16 11 -7 10 -9 -3 -9
-10 0 -20 -10 -24 -25 -3 -14 -9 -23 -13 -21 -4 3 -13 -5 -21 -17 -11 -19 -11
-20 1 -10 12 10 15 8 15 -6 0 -10 -5 -17 -12 -14 -6 2 -17 -4 -25 -13 -12 -16
-12 -17 1 -10 9 4 8 2 -2 -7 -10 -8 -15 -17 -11 -20 3 -4 1 -7 -5 -7 -7 0 -12
-9 -12 -21 0 -11 -4 -17 -10 -14 -10 6 -14 -7 -11 -32 1 -6 -3 -14 -9 -18 -5
-3 -10 -15 -10 -26 0 -10 -4 -19 -9 -19 -12 0 -41 -86 -32 -96 3 -5 4 -8 2 -7
-2 2 -10 -2 -17 -8 -10 -8 -11 -16 -3 -31 7 -12 7 -18 1 -14 -5 3 -12 -1 -16
-9 -3 -8 -1 -17 4 -20 5 -3 7 -18 6 -33 -3 -20 -9 -27 -24 -26 -13 1 -19 -3
-15 -12 3 -8 10 -11 17 -7 6 3 3 -3 -7 -14 -15 -18 -17 -25 -7 -43 8 -15 8
-20 1 -16 -6 4 -11 4 -12 -1 0 -4 -2 -16 -4 -26 -3 -14 1 -17 13 -12 13 5 13
2 -3 -15 -13 -14 -14 -20 -5 -20 9 0 7 -5 -6 -15 -12 -9 -13 -13 -4 -10 11 4
16 -1 17 -15 1 -11 -3 -20 -8 -20 -6 0 -7 5 -3 12 4 6 3 8 -4 5 -11 -7 -11
-32 1 -43 4 -4 -1 -13 -11 -21 -9 -8 -11 -12 -5 -8 9 4 12 -3 9 -25 -2 -17 1
-33 6 -36 5 -3 4 -12 -3 -20 -9 -12 -9 -13 3 -9 9 4 15 0 15 -9 0 -8 -6 -12
-13 -9 -9 3 -11 -2 -7 -17 4 -16 8 -18 14 -8 6 9 9 9 9 1 0 -6 -5 -15 -11 -19
-8 -4 -7 -9 2 -15 11 -7 9 -9 -6 -9 -18 -1 -17 -2 4 -11 20 -8 21 -11 10 -25
-16 -19 -21 -47 -7 -38 6 4 8 -6 5 -25 -3 -19 0 -37 7 -44 11 -9 10 -14 -3
-24 -14 -10 -12 -11 8 -6 20 5 23 3 18 -11 -4 -10 -7 -20 -7 -23 0 -3 -8 1
-17 8 -16 13 -17 12 -5 -3 7 -9 22 -15 34 -13 17 4 18 2 6 -12 -11 -13 -11
-17 0 -21 10 -3 8 -8 -5 -19 -10 -8 -12 -12 -5 -8 6 3 12 1 12 -5 0 -6 4 -9 9
-6 11 7 8 -21 -4 -31 -4 -4 -5 -2 0 6 5 10 4 12 -4 7 -6 -4 -9 -12 -5 -17 3
-5 8 -7 12 -5 4 2 14 -3 22 -12 13 -14 12 -15 -4 -9 -15 6 -17 5 -8 -6 7 -8 8
-18 4 -22 -4 -5 -2 -6 3 -2 16 8 38 -30 23 -39 -6 -4 -8 -3 -4 4 3 6 2 13 -3
16 -16 10 -6 -20 12 -39 10 -10 16 -23 13 -30 -3 -8 2 -16 10 -19 9 -3 12 -10
9 -16 -3 -5 -1 -10 4 -10 6 0 11 -5 11 -11 0 -5 -6 -7 -12 -4 -7 4 -2 -3 12
-15 14 -12 24 -25 24 -29 -1 -3 3 -5 9 -3 6 2 4 -5 -4 -14 -9 -12 -9 -15 -1
-10 8 5 12 0 12 -14 0 -14 4 -19 12 -14 8 5 9 2 5 -9 -4 -10 -2 -16 5 -14 7 1
12 -5 13 -13 1 -8 7 -14 14 -12 8 2 10 -4 6 -18 -5 -15 -3 -18 9 -14 11 4 16
0 16 -11 0 -9 -4 -13 -10 -10 -16 10 -11 -1 7 -16 11 -10 14 -10 9 -1 -4 6 -2
12 3 12 6 0 11 -7 11 -16 0 -9 5 -12 13 -8 9 6 9 4 -1 -8 -10 -13 -10 -18 -1
-24 8 -4 9 -3 5 4 -4 7 -2 12 3 12 6 0 12 -4 12 -10 1 -5 2 -14 3 -19 0 -5 5
-13 10 -18 5 -5 6 -2 2 7 -5 9 -2 8 7 -2 8 -10 20 -18 28 -19 8 0 5 -4 -6 -9
-17 -7 -17 -9 -2 -9 9 -1 17 -5 17 -11 0 -5 5 -10 11 -10 15 0 39 -26 32 -34
-4 -3 1 -6 9 -6 9 0 18 -9 21 -20 3 -14 10 -18 21 -14 9 4 16 3 15 -2 -3 -20
2 -34 12 -34 5 0 8 4 4 9 -3 5 0 13 6 17 8 4 9 3 5 -4 -4 -7 -2 -12 4 -12 6 0
8 -5 5 -10 -3 -6 -1 -10 5 -10 6 0 8 -5 4 -12 -5 -8 -1 -8 12 2 10 8 16 11 12
6 -4 -4 -1 -14 5 -21 9 -10 15 -10 26 -1 12 8 13 8 7 -1 -9 -17 6 -17 24 -1
12 11 12 10 1 -4 -10 -14 -11 -21 -2 -32 13 -16 64 -19 54 -3 -3 6 -1 7 5 3 6
-4 8 -14 5 -23 -4 -10 -2 -14 5 -9 6 3 16 -2 22 -11 9 -15 11 -15 7 -2 -4 13
-1 15 14 12 11 -3 22 -9 25 -14 3 -5 -3 -6 -13 -2 -10 3 -14 2 -10 -2 4 -5 24
-8 44 -7 33 3 35 1 22 -15 -11 -14 -9 -14 10 2 20 16 23 17 18 3 -5 -15 13
-16 209 -16 118 0 217 5 220 9 3 5 10 6 16 3 7 -4 8 -2 4 5 -4 6 -13 8 -19 4
-18 -11 -36 -12 -42 -3 -3 5 3 7 15 5 11 -2 22 0 25 6 4 5 13 5 23 0 20 -10
52 0 70 22 7 8 21 13 32 10 15 -4 20 0 21 13 0 18 1 18 9 -1 7 -17 9 -17 9 -2
1 9 8 17 16 17 9 0 18 6 21 14 3 8 12 12 20 9 8 -3 14 1 14 11 0 9 5 16 11 16
5 0 7 -4 4 -10 -3 -6 1 -7 10 -4 12 5 13 9 4 20 -10 12 -8 13 6 8 14 -6 16 -4
10 7 -8 12 -6 12 8 0 15 -12 17 -12 12 1 -3 8 2 21 12 29 16 13 17 12 5 -3
-10 -12 -10 -18 -1 -24 7 -4 9 -3 5 4 -3 6 -1 14 5 17 5 4 8 13 5 20 -2 7 2
12 12 11 9 0 22 10 29 24 7 14 17 24 23 22 5 -1 10 6 10 15 0 15 2 16 10 3 8
-13 10 -12 11 5 1 11 1 24 0 28 -1 5 2 6 6 4 5 -2 17 5 28 16 11 11 13 16 5
12 -10 -6 -9 -1 3 13 11 11 16 25 13 30 -4 6 3 8 16 5 23 -5 23 -5 3 11 -13
11 -15 14 -4 11 22 -8 45 21 30 38 -13 17 -4 28 17 20 11 -5 14 -2 9 10 -4 12
-1 17 11 18 15 0 15 1 1 7 -14 6 -15 9 -3 20 8 7 14 9 14 5 0 -12 20 20 20 32
0 6 -5 3 -10 -5 -7 -12 -9 -10 -7 7 0 12 5 19 9 17 7 -5 12 13 11 43 -1 7 3
10 8 7 5 -3 10 5 10 18 1 13 3 38 3 55 1 18 6 36 11 40 4 5 5 2 0 -6 -5 -9 -4
-12 3 -7 10 6 15 435 4 463 -2 7 -9 10 -16 6 -6 -4 -5 1 3 10 10 13 10 17 1
17 -10 0 -10 3 -1 14 9 11 9 16 0 22 -8 5 -9 3 -4 -6 5 -9 4 -11 -4 -6 -6 4
-9 12 -5 17 3 5 -3 25 -14 43 -13 22 -17 38 -11 47 12 19 11 29 -2 29 -5 0 -7
-5 -3 -12 4 -6 3 -8 -4 -5 -5 4 -8 16 -5 27 3 11 0 20 -6 20 -6 0 -11 7 -11
16 0 9 -5 12 -12 8 -10 -5 -10 -4 0 7 10 11 8 16 -10 27 -13 7 -15 11 -6 8 12
-3 15 -1 11 10 -3 7 -11 14 -18 14 -8 0 -12 10 -11 25 2 13 -1 22 -5 19 -5 -3
-9 0 -9 6 0 6 -4 8 -10 5 -9 -6 -15 16 -11 39 1 5 -5 3 -14 -4 -13 -11 -15
-10 -9 6 4 10 4 16 0 12 -10 -9 -76 65 -76 85 0 11 -5 14 -17 10 -11 -4 -14
-3 -9 5 4 7 2 12 -4 12 -6 0 -9 4 -6 9 3 5 -6 12 -20 15 -21 6 -24 9 -14 21
15 18 6 19 -23 3 -20 -10 -21 -10 -8 6 12 14 12 16 -4 9 -14 -5 -17 -3 -12 10
3 9 1 19 -5 23 -7 4 -8 3 -4 -4 4 -7 2 -12 -3 -12 -6 0 -11 5 -11 11 0 8 -6 7
-17 -2 -15 -13 -15 -12 -5 8 17 31 15 38 -5 22 -14 -11 -13 -8 2 11 11 14 27
31 35 38 8 7 10 11 3 8 -7 -4 -9 1 -6 14 3 11 10 20 15 20 5 0 6 -6 2 -12 -4
-8 -3 -10 2 -5 5 5 9 12 10 15 2 29 17 72 25 72 6 0 7 -5 3 -12 -5 -7 -3 -8 5
-4 9 6 8 13 -5 27 -14 16 -15 19 -3 14 9 -3 22 1 29 10 9 11 9 15 1 15 -7 0
-9 5 -6 10 4 6 10 8 15 5 5 -3 12 0 16 6 4 7 3 9 -3 6 -11 -7 -28 22 -18 31 3
3 5 0 5 -6 0 -9 5 -9 20 0 11 7 15 15 9 18 -5 4 -7 14 -3 23 3 9 11 14 18 10
6 -4 5 1 -2 10 -12 14 -11 16 7 12 19 -3 20 -1 10 17 -10 18 -9 20 5 15 14 -5
16 -3 11 12 -3 11 0 23 6 27 8 5 9 3 4 -6 -5 -9 -4 -11 4 -6 9 6 9 11 0 22 -6
8 -9 17 -5 21 3 3 6 1 6 -5 0 -7 4 -12 10 -12 5 0 6 7 3 17 -4 9 -2 14 3 10 5
-3 11 6 12 20 2 24 30 56 42 48 3 -2 6 9 7 23 l1 27 -14 -25 c-7 -14 -13 -20
-14 -14 0 6 10 23 21 38 21 27 21 27 1 32 -11 3 -24 15 -30 27 -6 12 -11 16
-11 9 -1 -7 -12 -1 -27 15 -14 15 -23 22 -19 16 3 -7 1 -13 -4 -13 -6 0 -11 8
-11 18 0 14 -2 15 -10 2 -8 -12 -10 -12 -10 -1 0 8 -3 11 -6 8 -10 -9 -46 12
-39 23 4 6 -5 6 -21 0 -21 -9 -29 -7 -40 7 -12 16 -15 16 -24 3 -8 -13 -10
-13 -10 3 0 9 5 17 12 17 6 0 9 2 6 5 -10 10 -38 -7 -31 -19 3 -6 -5 -1 -18
10 -23 21 -33 21 -282 21 -142 0 -260 -4 -263 -9z m16 -7 c0 -5 -7 -12 -16
-15 -14 -5 -15 -4 -4 9 14 17 20 19 20 6z m440 -1 c0 -5 -2 -10 -4 -10 -3 0
-8 5 -11 10 -3 6 -1 10 4 10 6 0 11 -4 11 -10z m63 -10 c4 0 5 6 1 13 -4 6 -3
8 1 4 5 -4 10 -14 11 -22 2 -11 -2 -12 -16 -5 -11 6 -22 16 -26 23 -5 9 -4 9
7 0 7 -7 17 -13 22 -13z m-750 -85 c-3 -9 -8 -14 -10 -11 -3 3 -2 9 2 15 9 16
15 13 8 -4z m1002 -5 c3 -6 -1 -7 -9 -4 -18 7 -21 14 -7 14 6 0 13 -4 16 -10z
m-1585 -680 c-6 -11 -13 -20 -16 -20 -2 0 0 9 6 20 6 11 13 20 16 20 2 0 0 -9
-6 -20z m1790 -1020 c0 -5 -2 -10 -4 -10 -3 0 -8 5 -11 10 -3 6 -1 10 4 10 6
0 11 -4 11 -10z m-1240 -692 c0 -4 -4 -8 -9 -8 -6 0 -12 4 -15 8 -3 5 1 9 9 9
8 0 15 -4 15 -9z"/>
<path d="M2635 2760 c3 -5 8 -10 11 -10 2 0 4 5 4 10 0 6 -5 10 -11 10 -5 0
-7 -4 -4 -10z"/>
<path d="M435 2720 c3 -5 8 -10 11 -10 2 0 4 5 4 10 0 6 -5 10 -11 10 -5 0 -7
-4 -4 -10z"/>
<path d="M2836 2677 c3 -10 9 -15 12 -12 3 3 0 11 -7 18 -10 9 -11 8 -5 -6z"/>
<path d="M2756 1881 c-3 -4 4 -17 15 -27 18 -16 19 -16 13 -1 -3 9 -10 17 -16
17 -5 0 -6 5 -3 10 3 6 4 10 1 10 -3 0 -7 -4 -10 -9z"/>
<path d="M1110 1816 c0 -2 7 -7 16 -10 8 -3 12 -2 9 4 -6 10 -25 14 -25 6z"/>
<path d="M2956 1525 c9 -14 18 -25 20 -25 2 0 -2 11 -8 25 -6 14 -15 25 -20
25 -5 0 -1 -11 8 -25z"/>
<path d="M2455 251 c-3 -5 -2 -12 3 -15 5 -3 9 1 9 9 0 17 -3 19 -12 6z"/>
</g>
</svg>
