<?xml version="1.0" standalone="no"?>
<!-- Generator: Adobe Fireworks 10, Export SVG Extension by Aaron Beall (http://fireworks.abeall.com) . Version: 0.6.1  -->
<!DOCTYPE svg PUBLIC "-//W3C//DTD SVG 1.1//EN" "http://www.w3.org/Graphics/SVG/1.1/DTD/svg11.dtd">
<svg id="Untitled-Page%201" viewBox="0 0 1164 913" style="background-color:#ffffff00" version="1.1"
	xmlns="http://www.w3.org/2000/svg" xmlns:xlink="http://www.w3.org/1999/xlink" xml:space="preserve"
	x="0px" y="0px" width="1164px" height="913px"
>
	<g>
		<g>
			<path d="M 422.0361 263.9312 C 422.0361 263.9312 399.4043 219.3216 387.8516 204.7318 C 382.6777 198.2 368.7803 183.4011 360.6787 185.3882 C 343.6543 189.5637 314.2188 196.3301 314.2188 196.3301 C 314.2188 196.3301 300.2627 147.2412 290.4824 114.5573 C 287.7236 105.3192 269.3535 100.499 251.9375 106.6166 C 242.7305 109.8523 226.6113 124.2184 223.7363 133.5043 C 222.1895 138.5063 227.7393 153.0707 227.7393 153.0707 C 227.7393 153.0707 226.041 156.5945 226.9043 158.6686 C 227.582 160.2982 229.0996 160.1985 229.8574 161.2536 C 231.4482 163.4449 232.8242 172.9399 235.4434 175.7389 C 237.5684 178.0025 243.541 178.1197 246.5859 177.4749 C 256.873 175.3022 258.9199 179.9896 260.8672 183.4744 C 264.3301 189.6594 270.2334 211.421 270.2334 211.421 C 270.2334 211.421 244.4512 220.8906 223.4219 230.6298 C 218.8418 232.7508 213.8027 240.3329 216.7227 249.5964 C 224.4336 274.0475 237.5508 445.4116 237.5508 445.4116 L 452.2803 429.7159 L 422.0361 263.9312 Z" fill="#e3dab2"/>
			<path d="M 410.7871 288.6773 L 406.4902 272.926 L 372.6445 207.989 C 372.6445 207.989 398.418 197.3226 365.8486 185.6207 C 351.1133 180.3276 314.2188 196.3301 314.2188 196.3301 C 314.2188 196.3301 308.2422 210.7264 291.2832 217.61 C 279.4287 222.4186 270.2334 211.421 270.2334 211.421 C 270.2334 211.421 232.1543 221.4045 220.3633 232.0796 C 211.002 240.5586 215.8574 261.7663 215.8574 261.7663 L 233.3887 263.133 C 233.3887 263.133 246.4375 310.012 249.3154 324.4162 C 255.4424 355.071 262.1543 443.7078 262.1543 443.7078 L 410.7871 288.6773 Z" fill="#5d5d5d"/>
		</g>
		<g>
			<path d="M 321.9912 246.2669 C 321.9912 246.2669 316.7266 191.9455 320.5918 173.7645 C 322.3281 165.6323 330.4805 150.9565 338.6367 149.1648 C 355.748 145.4035 391.8438 137.4121 391.8438 137.4121 C 391.8438 137.4121 382.5117 87.2496 376.7344 53.6405 C 375.0938 44.1406 389.418 31.7177 407.7568 29.5196 C 417.4502 28.3599 440.1924 31.0504 446.9014 38.1089 C 450.5254 41.9102 448.2598 54.8363 450.1406 58.2663 C 451.0332 59.8754 453.0088 62.0852 453.6543 64.9614 C 453.9463 66.2275 453.0146 67.4243 452.4443 68.5947 C 450.7656 72.0365 454.3193 79.4711 453.207 83.1405 C 452.3203 86.1007 445.7949 89.6685 442.7813 90.4325 C 432.5859 93.0253 434.1523 98.379 433.959 102.363 C 433.6035 109.4332 437.999 131.5426 437.999 131.5426 C 437.999 131.5426 474.7461 126.522 497.9375 125.9769 C 502.9883 125.8567 494.9395 137.7335 496.4404 147.3281 C 500.4121 172.6488 510.8262 242.8134 510.8262 242.8134 L 324.6104 265.3986 L 321.9912 246.2669 Z" fill="#e3dab2"/>
			<path d="M 346.3789 262.794 L 336.7041 263.9507 L 323.9277 265.4826 C 323.9277 265.4826 305.9482 171.8516 329.9395 146.9979 C 340.792 135.7571 391.8438 137.4121 391.8438 137.4121 C 391.8438 137.4121 403.6191 147.6886 421.8789 146.3766 C 434.6514 145.4583 440.0078 131.3863 440.0078 131.3863 C 440.0078 131.3863 486.1123 120.8401 501.4414 125.2119 C 513.6035 128.6781 494.3848 151.7791 494.3848 151.7791 L 503.6328 242.3025 L 513.5811 242.7821 L 506.8633 257.3192 L 346.3789 262.794 Z" fill="#5d5d5d"/>
		</g>
		<path d="M 469.8281 233.0107 C 487.2461 230.9532 523.9551 226.5726 523.9551 226.5726 C 523.9551 226.5726 519.6719 175.7369 517.2715 141.7224 C 516.5898 132.1072 532.0781 121.1595 550.5469 120.7844 C 560.3086 120.589 572.6836 124.8641 578.6533 132.5488 C 581.877 136.6891 579.9805 153.1918 579.9805 153.1918 C 579.9805 153.1918 572.5361 184.6047 569.498 185.2505 C 561.5234 186.9308 569.9473 191.9123 569.3555 195.8543 C 568.293 202.8541 570.4629 225.2996 570.4629 225.2996 C 570.4629 225.2996 607.5332 223.9289 630.666 225.6757 C 635.6992 226.0587 642.6055 230.5898 643.1484 240.285 C 644.5684 265.8714 641.8105 415.8666 641.8105 415.8666 L 495.4414 420.7113 C 495.4414 420.7113 461.5469 233.9857 469.8281 233.0107 Z" fill="#e3dab2"/>
		<g>
			<path d="M 385.2559 104.7038 C 389.5381 104.5348 394.2686 100.878 396.2383 97.2125 C 398.6953 93.3213 399.502 88.5919 400.6699 83.9944 C 401.708 79.7544 407.3047 67.3901 414.377 60.5739 C 422.1348 53.1022 436.9834 50.6305 446.418 45.2035 C 448.8066 43.8299 452.8018 39.8606 452.3926 33.6257 C 451.6211 21.7792 443.5078 20.5668 439.1592 19.923 C 434.3203 19.202 422.3105 20.9751 418.626 23.3052 C 414.4521 25.8619 404.5996 23.8425 399.9492 25.2532 C 394.4473 26.7724 380.8418 28.3941 374.2451 46.2938 C 366.9941 65.9657 379.2813 92.3785 382.7686 99.86 C 383.4609 101.3118 384.627 102.3786 385.3213 103.8333 L 385.3213 103.8333 " fill="#303030"/>
		</g>
		<path d="M 480.8848 429.497 C 480.8848 429.497 455.4707 230.5458 460.957 221.0069 C 468.7393 207.479 501.9727 224.3783 517.4785 226.5726 C 534.6895 229.0071 548.3408 229.0071 566.0078 225.3357 C 581.1182 222.1958 601.1699 170.8766 615.9775 176.7441 C 627.7363 181.3964 639.9482 277.0946 639.9482 277.0946 L 636.9521 418.4673 L 622.5986 418.7555 L 612.8574 431.4822 L 480.8848 429.497 Z" fill="#8fcfc5"/>
		<g>
			<path d="M 312.5771 209.9546 C 308.6387 211.6526 287.4609 163.0356 284.4043 159.3915 C 281.6201 156.0211 256.8252 129.6102 236.9063 137.4121 C 232.9248 138.9645 228.8164 141.2359 224.3809 140.9467 C 221.6201 140.806 214.4512 129.6824 222.2734 119.5339 C 236.8037 100.6885 256.3066 95.3846 267.5381 97.2311 C 301.4395 102.8065 317.877 124.2701 321.0645 127.9318 C 334.6484 143.5288 344.8438 187.262 345.9414 196.248 C 346.9219 204.3753 363.8857 219.2444 340.6357 220.4256 C 325.9111 221.1759 321.9834 205.7752 321.9941 207.395 L 321.9941 207.395 " fill="#303030"/>
		</g>
		<path d="M 446.3301 57.1214 C 446.3877 57.5346 445.9805 57.9928 445.6094 58.1804 C 444.9668 58.5037 443.8438 58.6601 443.1367 58.4998 C 442.7295 58.408 442.2031 58.1169 442.1475 57.6968 L 442.1475 57.6968 C 442.0869 57.2894 442.3828 56.9015 442.791 56.8459 L 445.4746 56.4756 C 445.8887 56.4209 446.2734 56.7101 446.3301 57.1214 L 446.3301 57.1214 Z" stroke="#303030" stroke-width="3" fill="#303030"/>
		<path d="M 446.749 49.6741 C 446.8809 50.1176 446.625 50.5846 446.1768 50.7184 L 435.0176 54.0508 C 434.5693 54.1827 434.0996 53.9297 433.9668 53.49 L 433.9668 53.49 C 433.8262 53.0445 434.0898 52.5746 434.5332 52.4408 L 445.6953 49.1045 C 446.1406 48.9746 446.6104 49.2286 446.749 49.6741 L 446.749 49.6741 Z" stroke="#303030" stroke-width="3" fill="#303030"/>
		<path d="M 440.3203 74.9898 C 441.0547 80.2565 437.3672 85.1081 432.084 85.8369 C 426.8027 86.5647 421.9219 82.8963 421.1875 77.6344 C 420.457 72.3764 424.1475 67.5181 429.4238 66.7863 C 434.7129 66.0575 439.582 69.7338 440.3203 74.9898 Z" fill="#e4caac"/>
		<path d="M 610.3691 60.9051 C 610.3691 60.9051 613.9648 48.3669 612.5137 39.8557 C 611.418 33.4215 605.7363 19.5312 602.875 16.2096 C 602.2813 15.5081 599.5156 16.1588 599.5156 16.1588 C 599.5156 16.1588 597.0664 8.2904 595.1465 6.9315 C 594.2773 6.3121 591.4395 7.1806 591.1055 6.8602 C 590.7754 6.5407 588.7266 2.205 587.1807 1.2642 C 586.584 0.889 584.4893 0.9809 584.0449 1.5651 C 583.375 2.4482 583.4316 4.4217 583.2568 5.5999 C 583.1445 6.3267 578.8281 5.0684 578.6533 6.6501 C 578.043 12.29 582.3418 28.398 583.291 33.1001 C 583.6084 34.6661 583.2988 38.2613 581.9453 38.3414 C 579.8457 38.4528 577.8867 32.1222 576.957 30.8932 C 576.0508 29.6944 572.4541 29.6544 571.8516 31.067 C 569.6641 36.2029 577.4131 65.1187 577.4131 65.1187 L 610.3691 60.9051 Z" fill="#e3dab2"/>
		<path d="M 635.9268 225.6874 C 635.9268 225.6874 642.2148 171.8438 636.1709 136.0434 C 632.4277 113.8304 614.1836 52.9859 614.1836 52.9859 L 576.667 62.2318 C 576.667 62.2318 587.5605 166.6493 580.5781 198.2576 C 578.3281 208.4423 571.4629 227.6062 571.4629 227.6062 L 635.9268 225.6874 Z" fill="#8fcfc5"/>
		<path d="M 472.9219 61.9407 C 472.9219 61.9407 468.1367 49.8011 468.7646 41.1892 C 469.2363 34.6827 473.5576 20.3147 476.0879 16.7352 C 476.6113 15.979 479.4277 16.3659 479.4277 16.3659 C 479.4277 16.3659 481.1094 8.3002 482.8887 6.7634 C 483.6963 6.0649 486.6045 6.6589 486.9053 6.3082 C 487.2021 5.9594 488.8262 1.4478 490.2754 0.3654 C 490.8301 -0.0664 492.9258 -0.1739 493.4238 0.3673 C 494.1758 1.1821 494.3086 3.1516 494.5957 4.3064 C 494.7783 5.0196 498.9551 3.3549 499.2793 4.9141 C 500.4297 10.469 497.6963 26.9131 497.2051 31.6864 C 497.0381 33.274 497.6924 36.8223 499.0469 36.7724 C 501.1484 36.6845 502.4912 30.1956 503.2969 28.8845 C 504.084 27.6047 507.6602 27.2237 508.3945 28.5719 C 511.0664 33.4762 506.1318 62.9977 506.1318 62.9977 L 472.9219 61.9407 Z" fill="#e3dab2"/>
		<path d="M 460.4766 240.1405 C 460.4766 240.1405 451.8789 175.4018 454.4531 139.1901 C 456.0469 116.7212 468.3633 54.4201 468.3633 54.4201 L 509.4189 54.8363 C 509.4189 54.8363 503.5957 175.48 513.5811 206.2774 C 516.7979 216.2012 525.4746 234.6246 525.4746 234.6246 L 460.4766 240.1405 Z" fill="#8fcfc5"/>
		<path d="M 729.2266 326.0125 C 729.2266 326.0125 741.9033 287.9818 737.9971 269.7997 C 736.2578 261.6705 732.9863 239.3335 724.7334 237.532 C 707.4102 233.7619 681.0781 222.3814 681.0781 222.3814 C 681.0781 222.3814 690.5576 172.2248 696.4277 138.6206 C 698.0977 129.1197 683.6094 116.6851 665.0488 114.4752 C 655.2363 113.3127 632.6328 115.7599 625.8447 122.8086 C 622.1758 126.6119 621.4434 144.2361 621.4434 144.2361 C 621.4434 144.2361 618.4961 146.7195 618.2803 148.7672 C 618.0342 151.107 619.1328 152.1738 619.7109 153.3403 C 620.3164 154.5625 617.1934 163.8328 618.9277 169.3936 C 619.8486 172.3508 625.1855 174.8547 628.2354 175.6207 C 638.5527 178.2164 638.2813 183.3181 638.4805 187.303 C 638.8359 194.3781 634.3779 216.4816 634.3779 216.4816 C 634.3779 216.4816 609.7891 223.2392 586.3203 222.6765 C 581.21 222.5573 577.5293 228.802 576.002 238.3956 C 571.9746 263.7143 585.6953 326.8097 585.6953 326.8097 L 711.0449 416.7654 L 729.2266 326.0125 Z" fill="#ebedd2"/>
		<path d="M 719.0947 431.4822 L 760.4805 432.1348 L 762.5996 338.2518 C 762.5996 338.2518 747.7637 258.5882 732.7324 235.5859 C 724.1641 222.4694 681.0781 222.3814 681.0781 222.3814 C 681.0781 222.3814 669.1582 232.6512 650.6719 231.3264 C 637.7461 230.4003 634.3779 216.4816 634.3779 216.4816 C 634.3779 216.4816 602.7822 216.086 587.2676 220.451 C 574.9521 223.9133 572.6387 234.4859 572.6387 234.4859 C 572.6387 234.4859 554.2129 288.8688 550.6094 307.5989 C 544.7412 338.1111 535.751 423.9382 535.751 423.9382 L 570.9648 431.4822 L 719.0947 431.4822 Z" fill="#303030"/>
		<g>
			<path d="M 516.2207 191.0877 C 523.1182 203.0241 536.6152 204.554 543.4121 204.5052 C 548.0498 204.4729 563.5996 200.869 569.7969 192.9693 C 589.6758 167.636 577.3594 145.7826 582.6367 141.8142 C 586.8809 138.6245 584.5508 120.4464 577.6895 115.9416 C 573.4297 113.1446 564.7764 111.5844 560.6455 113.5403 C 555.9785 115.6798 545.0615 110.9455 539.96 111.517 C 528.5508 112.7949 520.3086 114.9188 511.4551 132.0858 C 501.7246 150.9585 510.8262 184.5471 516.2207 191.0877 L 516.2207 191.0877 Z" fill="#303030"/>
		</g>
		<g>
			<path d="M 624.3066 143.3207 C 624.2891 143.7388 624.626 144.0241 625.041 144.112 C 625.8301 144.2801 627.0332 144.3758 627.7725 144.2361 C 628.1895 144.1589 628.5605 143.9303 628.5771 143.5092 L 628.5771 143.5092 C 628.5996 143.0979 628.2012 142.7482 627.8105 142.5997 C 627.0977 142.3301 625.9277 142.2988 625.0732 142.4805 C 624.6602 142.5684 624.3252 142.9055 624.3066 143.3207 L 624.3066 143.3207 Z" fill="#303030"/>
			<path d="M 623.1836 135.9437 C 623.0918 136.398 623.3945 136.8406 623.8574 136.9324 L 635.4199 139.2214 C 635.8828 139.3113 636.332 139.0163 636.4258 138.5649 L 636.4258 138.5649 C 636.5254 138.1096 636.2158 137.6661 635.7559 137.5743 L 624.1934 135.2804 C 623.7305 135.1925 623.2813 135.4875 623.1836 135.9437 L 623.1836 135.9437 Z" fill="#303030"/>
		</g>
		<path d="M 644.1328 157.3077 C 643.752 165.644 650.3047 172.7045 658.7773 173.0786 C 667.2432 173.4557 674.4258 167.0088 674.8115 158.6725 C 675.1895 150.3372 668.6309 143.2777 660.166 142.8977 C 651.6855 142.5255 644.5234 148.9811 644.1328 157.3077 Z" fill="#e4d2af"/>
		<path d="M 234.7754 150.5365 C 234.7568 150.9546 235.082 151.3102 235.5 151.3278 L 238.1992 151.4528 C 238.6182 151.4665 238.9775 151.1461 238.9941 150.725 L 238.9941 150.725 C 239.0156 150.3137 238.6865 149.9542 238.2734 149.9366 L 235.5684 149.8155 C 235.1504 149.7979 234.793 150.1222 234.7754 150.5365 L 234.7754 150.5365 Z" stroke="#202020" stroke-width="3" fill="#303030"/>
		<path d="M 230.2275 142.7423 C 230.1953 143.2054 230.5488 143.605 231.0146 143.6392 L 242.6387 144.4657 C 243.1035 144.4979 243.5059 144.1491 243.5391 143.688 L 243.5391 143.688 C 243.5791 143.2249 243.2207 142.8224 242.7539 142.7892 L 231.1328 141.9588 C 230.6689 141.9295 230.2656 142.2783 230.2275 142.7423 L 230.2275 142.7423 Z" fill="#303030"/>
		<path d="M 244.3867 162.2696 C 244.1797 166.8154 247.709 170.6626 252.2734 170.8668 C 256.835 171.072 260.7002 167.5579 260.9102 163.0121 C 261.1133 158.4722 257.582 154.6201 253.0215 154.4149 C 248.4541 154.2137 244.5977 157.7288 244.3867 162.2696 Z" fill="#e4caac"/>
		<path d="M 269.3027 423.5806 C 269.3027 423.5806 282.5742 297.1749 287.3477 279.2244 C 289.4902 271.1782 296.333 252.0983 304.5674 250.7208 C 321.8574 247.8173 351.5635 242.3787 351.5635 242.3787 C 351.5635 242.3787 344.7822 191.8146 340.7051 157.9613 C 339.5557 148.3852 354.4834 136.697 372.917 135.424 C 382.6543 134.7528 403.1797 141.5592 409.5186 148.9362 C 412.9424 152.9183 413.6953 169.4737 413.6953 169.4737 C 413.6953 169.4737 417.4336 171.4295 417.3135 173.1783 C 417.2236 174.4786 416.1934 175.5493 415.5742 176.6816 C 413.7109 180.0404 418.2852 188.5066 416.9902 192.1174 C 415.9453 195.0317 409.1514 197.7134 406.1055 198.326 C 395.793 200.4059 395.7979 205.5114 395.3945 209.4818 C 394.6875 216.5256 397.9531 238.8304 397.9531 238.8304 C 397.9531 238.8304 425.3955 237.3278 448.5859 237.9433 C 453.6328 238.0771 461.2813 243.042 462.2969 252.6972 C 464.9814 278.1908 486.707 429.1434 486.707 429.1434 L 271.7441 442.1877 L 269.3027 423.5806 Z" fill="#ebedd2"/>
		<path d="M 294.3047 440.6304 L 291.958 426.9961 L 269.9561 426.6932 C 269.9561 426.6932 274.6963 276.6003 299.918 252.9776 C 311.3232 242.2976 351.5635 242.3787 351.5635 242.3787 C 351.5635 242.3787 362.8018 253.2316 381.1113 252.8408 C 393.9102 252.5634 397.9531 238.8304 397.9531 238.8304 C 397.9531 238.8304 435.7051 231.9321 450.79 237.0611 C 462.7598 241.1379 464.4473 254.5857 464.4473 254.5857 L 480.2891 326.8195 L 491.6191 429.8273 L 452.2803 429.7159 L 294.3047 440.6304 Z" fill="#edea6f"/>
		<g>
			<path d="M 357.207 245.2734 C 358.3281 243.7923 355.7402 203.8594 357.8926 200.2994 C 360.5381 196.5255 361.5879 191.8468 362.9824 187.3157 C 364.2344 183.1344 364.0762 178.3659 363.7695 173.9432 C 363.5547 170.8922 363.5771 163.8923 366.8926 162.125 C 369.6953 160.5658 370.9756 163.2427 372.7246 164.626 C 373.8477 165.5151 376.9668 165.5424 378.7305 163.7165 C 380.501 162.0527 381.6045 160.0461 382.2949 157.6076 C 383.1279 154.8175 388.7129 146.2984 397.8711 149.8936 C 401.8398 151.4538 406.8135 150.2981 410.7871 148.3158 C 413.2754 147.1171 417.0605 144.5653 417.0605 140.5598 C 417.0605 135.3781 416.584 131.8259 405.9355 125.2647 C 401.7734 122.7002 393.2188 117.791 384.0801 122.243 C 379.8984 124.278 371.877 120.7062 357.042 124.828 C 327.8105 132.9513 321.9053 164.9387 321.3877 169.7492 C 320.4766 178.8632 296.9844 246.7339 299.4746 255.4395 C 301.7402 263.3069 348.5586 271.4459 357.207 245.2734 L 357.207 245.2734 Z" fill="#303030"/>
		</g>
		<path d="M 409.6611 166.7245 C 409.6797 167.1427 409.3535 167.4983 408.9365 167.5159 L 406.2383 167.6399 C 405.8184 167.6546 405.459 167.3342 405.4434 166.9121 L 405.4434 166.9121 C 405.4209 166.5018 405.75 166.1413 406.1631 166.1237 L 408.8691 166.0035 C 409.2861 165.986 409.6426 166.3103 409.6611 166.7245 L 409.6611 166.7245 Z" stroke="#303030" stroke-width="3" fill="#303030"/>
		<path d="M 410.7715 159.3476 C 410.8613 159.8038 410.5625 160.2444 410.1055 160.3363 L 398.6816 162.6252 C 398.2246 162.7151 397.7813 162.4201 397.6875 161.9687 L 397.6875 161.9687 C 397.5898 161.5135 397.8945 161.069 398.3496 160.9781 L 409.7734 158.6842 C 410.2305 158.5963 410.6748 158.8913 410.7715 159.3476 L 410.7715 159.3476 Z" stroke="#303030" stroke-width="3" fill="#303030"/>
		<path d="M 401.7559 182.6039 C 401.959 187.0842 398.4766 190.8787 393.9785 191.0799 C 389.4824 191.2812 385.666 187.8169 385.4619 183.3366 C 385.2617 178.8583 388.7451 175.0618 393.2383 174.8577 C 397.7441 174.6584 401.5469 178.1265 401.7559 182.6039 Z" fill="#e4caac"/>
		<g>
			<path d="M 675.7236 224.5346 C 671.3848 224.3627 673.5664 171.4061 672.3887 166.8066 C 671.3438 162.5657 660.4121 128.0529 638.8125 126.4527 C 634.4922 126.1322 629.7441 126.4018 625.8281 124.2203 C 623.375 122.9024 621.7539 109.78 633.3701 104.0258 C 654.9434 93.3408 675.0654 97.0034 684.4863 103.5236 C 712.9258 123.216 718.418 149.6543 719.7061 154.3348 C 725.1973 174.2568 736.0234 229.5054 733.0508 238.0635 C 730.3574 245.8068 718.3877 255.1005 696.6719 246.1057 C 682.9141 240.4062 686.1465 224.8375 685.4414 226.2961 L 685.4414 226.2961 " fill="#303030"/>
		</g>
	</g>
	<path d="M 985.7275 412.4746 C 910.5605 362.5505 796.9492 275.807 705.3008 270.7444 C 685.5781 272.206 665.8281 273.6851 650.6328 282.7629 C 620.5576 304.8439 630.5049 331.8605 624.6699 360.071 C 612.1289 404.6473 569.5918 419.7158 525.8965 419.0183 C 352.3047 412.3105 181.7598 237.7176 0 325.3687 L 0 864.2149 C 1.2012 865.0561 2.4512 865.866 3.7539 866.6397 C 66.1895 905.6142 107.25 870.8015 151.9492 831.7626 C 192.7168 793.0098 268.1084 739.7748 294.0264 821.1548 C 299.4336 840.5825 293.3213 864.8528 302.6787 883.9845 C 320.5234 910.4247 360.2881 911.4173 392.1445 912.9999 C 463.4766 911.642 486.9727 854.3575 527.1514 807.7325 C 559.7168 765.6249 622.0918 697.4865 672.9873 741.2852 C 719.625 781.4486 710.7383 821.7859 778.7031 828.6158 C 818.4668 829.627 857.3398 818.7798 891.6738 800.3409 C 941.501 776.7895 981.6797 730.1518 1026.3828 691.107 C 1075.0322 651.77 1127.6123 612.1459 1154.7852 550.6019 C 1202.0674 439.97 1055.4688 442.9673 985.7275 412.4746 Z" fill="#f8f8f7"/>
</svg>