<?xml version="1.0" standalone="no"?>
<!-- Generator: Adobe Fireworks 10, Export SVG Extension by Aaron Beall (http://fireworks.abeall.com) . Version: 0.6.1  -->
<!DOCTYPE svg PUBLIC "-//W3C//DTD SVG 1.1//EN" "http://www.w3.org/Graphics/SVG/1.1/DTD/svg11.dtd">
<svg id="Untitled-Page%201" viewBox="0 0 72 59" style="background-color:#ffffff00" version="1.1"
	xmlns="http://www.w3.org/2000/svg" xmlns:xlink="http://www.w3.org/1999/xlink" xml:space="preserve"
	x="0px" y="0px" width="72px" height="59px"
>
	<g>
		<path d="M 29.7783 43.0049 C 28.4551 43.1885 26.9414 42.626 25.709 42.2217 C 23.5654 41.5176 21.4893 40.6064 19.4941 39.5566 C 16.0449 37.7412 11.3398 34.8672 10.5439 30.6865 C 10.3574 29.7051 10.3398 28.7959 9.8672 27.8799 C 9.3301 26.8369 8.5098 25.9834 7.6465 25.2051 C 6.0625 23.7783 4.2002 22.7197 2.4082 21.5859 C 1.5156 21.0205 -0.3535 19.9834 0.1279 18.626 C 1.0898 15.916 3.2012 13.3701 5.1035 11.2666 C 7.3174 8.8174 9.9414 6.7041 12.7988 5.0498 C 15.7871 3.3193 19.0918 2.3584 22.4512 1.6436 C 29.7227 0.0947 37.2871 -0.0635 44.6816 0.4443 C 48.0527 0.6758 51.3359 1.6494 54.3496 3.165 C 55.5273 3.7588 56.4746 4.2354 56.3535 5.6572 C 56.1123 8.4873 55.3223 11.3311 54.6836 14.0889 C 53.7881 17.9561 52.8008 21.8037 51.6875 25.6143 C 50.8096 28.6162 49.9277 31.7412 48.4912 34.5342 C 48.082 35.3291 47.5713 36.1621 46.7227 36.5352 C 45.9482 36.876 44.8291 36.5244 44.0352 36.4453 C 42.5791 36.2998 41.125 36.124 39.6768 35.915 C 38.1797 35.7002 36.6758 35.4482 35.2168 35.041 C 34.8613 34.9414 34.5137 34.8203 34.168 34.6904 C 33.7295 34.5244 33.832 34.6748 34.4922 34.7002 C 34.7344 34.0244 34.9756 33.3477 35.2168 32.6709 C 37.6924 35.3271 34.0781 38.8311 32.1563 40.5498 C 31.043 41.543 29.3047 39.9756 30.4316 38.9697 C 31.6992 37.8369 33.4492 36.21 33.7217 34.7432 C 33.7852 34.4043 33.7285 34.8477 33.7295 34.665 L 33.707 34.4014 C 33.7607 34.7744 33.5254 34.1426 33.7207 34.4854 C 33.5518 34.1875 33.9082 34.6846 33.6367 34.3955 C 33.0205 33.7334 33.2559 32.3223 34.3623 32.3662 C 34.6504 32.377 34.875 32.4609 35.1279 32.5684 C 35.4375 32.7002 35.0645 32.5518 35.1914 32.5947 C 35.3984 32.667 35.6074 32.7275 35.8184 32.7861 C 37.543 33.2686 39.3398 33.5215 41.1104 33.7627 C 42.6973 33.9775 44.29 34.1416 45.8838 34.291 C 46.3271 34.333 45.6758 34.4932 45.8828 34.3408 C 45.5313 34.6016 46.1445 33.96 45.9893 34.1885 C 46.7227 33.1162 47.1777 31.8262 47.6279 30.6201 C 50.3984 23.2041 52.2441 15.2373 53.71 7.4668 C 53.8105 6.9355 53.9043 6.4023 53.9844 5.8672 C 54.0117 5.6816 54.0352 5.4961 54.0547 5.3096 C 54.0586 5.2695 54.0693 5.4795 54.0508 5.1631 C 54.0293 4.7861 54.9629 6.2275 54.4756 5.915 C 54.3438 5.8301 54.207 5.752 54.0703 5.6729 C 53.6426 5.4248 53.2012 5.2021 52.7578 4.9863 C 51.2012 4.2275 49.5625 3.6787 47.8828 3.2705 C 44.2305 2.3857 40.2402 2.4971 36.5049 2.543 C 32.6836 2.5889 28.8623 2.8936 25.0898 3.5088 C 21.5615 4.083 17.9609 4.9717 14.7744 6.626 C 11.7686 8.1865 9.1201 10.3691 6.8262 12.8467 C 5.7891 13.9658 4.8418 15.1729 3.9941 16.4424 C 3.6055 17.0244 3.251 17.626 2.9102 18.2354 C 2.748 18.5264 2.5977 18.8242 2.4482 19.1221 C 2.3457 19.3252 2.2422 18.5342 2.3691 18.7148 C 2.9648 19.5576 5.2461 20.5898 6.3369 21.3115 C 8.833 22.9609 11.2988 24.9531 12.3848 27.834 C 12.8066 28.9521 12.6426 30.1768 13.1758 31.2568 C 13.7832 32.4912 14.791 33.4766 15.8203 34.3604 C 18.1816 36.3887 21.0547 37.8525 23.9043 39.0615 C 25.5303 39.752 28.043 40.8926 29.6465 40.6699 C 31.1436 40.4619 31.2598 42.7979 29.7783 43.0049 L 29.7783 43.0049 Z" fill="#d06264"/>
		<path d="M 55.5186 11.4814 C 55.3438 10.8545 58.918 9.2324 60.8828 8.915 C 62.7539 8.542 64.8984 9.4355 66.3574 10.6963 C 67.8877 11.9365 69.5566 13.3877 70.3418 15.3506 C 71.1992 17.29 72.1426 19.542 71.6211 21.6299 C 71.0674 23.8955 70.1201 26.4424 68.4297 28.0264 C 66.5635 29.8311 61.6631 32.04 61.6904 31.3271 C 61.8984 25.749 58.3955 13.6963 55.5186 11.4814 L 55.5186 11.4814 Z" fill="#d06264"/>
		<path d="M 55.1172 3.876 C 56.9434 3.6201 61.4287 17.9365 62.2305 25.4414 C 63.2031 32.6309 61.3652 40.4912 57.627 45.1162 C 53.9453 50.0273 48.7646 54.8721 43.0371 56.5518 C 37.3672 58.5176 30.791 60.6104 24.7744 57.3506 C 18.248 53.8701 10.9258 48.7412 6.4375 41.458 C 1.3232 33.3838 -1.1162 17.2197 0.9316 17.9346 C 17.7383 23.8154 46.0547 15.2021 55.1172 3.876 L 55.1172 3.876 Z" fill="#d06264"/>
	</g>
</svg>