<?xml version="1.0" standalone="no"?>
<!-- Generator: Adobe Fireworks 10, Export SVG Extension by Aaron Beall (http://fireworks.abeall.com) . Version: 0.6.1  -->
<!DOCTYPE svg PUBLIC "-//W3C//DTD SVG 1.1//EN" "http://www.w3.org/Graphics/SVG/1.1/DTD/svg11.dtd">
<svg id="Untitled-Page%201" viewBox="0 0 789 1128" style="background-color:#ffffff00" version="1.1"
	xmlns="http://www.w3.org/2000/svg" xmlns:xlink="http://www.w3.org/1999/xlink" xml:space="preserve"
	x="0px" y="0px" width="789px" height="1128px"
>
	<g>
		<path d="M 98.9364 47.1574 C 98.9364 47.1574 98.0806 34.8844 101.6113 27.6883 C 104.2775 22.2502 113.5333 11.4784 117.3278 9.3378 C 118.127 8.8848 120.8927 10.2671 120.8927 10.2671 C 120.8927 10.2671 125.3213 3.9407 127.667 3.2896 C 128.727 2.985 131.5192 4.5937 131.9471 4.4004 C 132.3701 4.213 135.5511 0.9293 137.4005 0.5339 C 138.1157 0.3768 140.309 1.0689 140.6421 1.7258 C 141.1423 2.7098 140.6118 4.459 140.5268 5.564 C 140.476 6.2493 145.3237 6.3801 145.1381 7.8443 C 144.4572 13.0705 136.1373 26.2367 134.032 30.1686 C 133.3315 31.4747 132.8147 34.7858 134.2293 35.2524 C 136.4177 35.9659 139.967 30.8646 141.2381 30.0359 C 142.4749 29.2315 146.2792 30.2467 146.584 31.6856 C 147.688 36.9196 132.7238 60.5403 132.7238 60.5403 L 98.9364 47.1574 Z" fill="#e3dab2"/>
		<path d="M 24.4261 186.5114 C 24.4261 186.5114 31.7768 138.9655 48.5279 109.8491 C 58.9169 91.7847 96.1276 42.3675 96.1276 42.3675 L 137.0244 62.6771 L 99.5001 175.155 L 24.4261 186.5114 Z" fill="#8ecdc5"/>
		<path d="M 213.9459 91.7485 C 213.9459 91.7485 223.8318 84.4109 227.006 77.0498 C 229.4015 71.4907 231.5742 57.4606 230.7321 53.1909 C 230.5582 52.2851 227.7035 51.0932 227.7035 51.0932 C 227.7035 51.0932 229.6301 43.6121 228.6082 41.4099 C 228.1431 40.4045 225.1097 39.3317 224.9758 38.8856 C 224.8429 38.4395 225.2699 33.8887 224.3662 32.2263 C 224.0213 31.5801 222.0664 30.3726 221.3552 30.5435 C 220.2805 30.808 219.2957 32.3454 218.5093 33.1312 C 218.0228 33.6125 214.7655 30.0144 213.7759 31.1145 C 210.249 35.0298 205.6534 49.9062 204.0257 54.0646 C 203.4923 55.4458 201.3156 57.9906 200.0456 57.2195 C 198.0741 56.0276 199.6372 50.0136 199.4438 48.5084 C 199.2484 47.0442 196.0088 44.8215 194.7162 45.5214 C 190.0141 48.0877 181.7929 74.8115 181.7929 74.8115 L 213.9459 91.7485 Z" fill="#e3dab2"/>
		<path d="M 102.175 147.4364 C 102.175 147.4364 123.3371 149.6132 141.1931 165.2335 C 162.6825 184.032 164.8416 196.5666 165.2822 209.0583 C 166.1937 235.2111 145.0658 313.4918 145.0658 313.4918 L 9.4062 311.9661 C 9.4062 311.9661 3.7066 270.4098 5.5775 256.6804 C 9.4551 228.2668 25.9394 178.7872 25.9394 178.7872 L 102.175 147.4364 Z" fill="#8ecdc5"/>
		<path d="M 140.9352 99.3722 C 140.9352 99.3722 141.7637 116.5455 140.3109 124.461 C 138.1684 136.1415 130.339 140.0783 127.9777 141.6245 C 124.6453 143.813 122.45 153.3694 122.45 153.3694 L 103.6034 146.4095 L 111.8128 120.2812 L 128.8716 101.1361 L 140.9352 99.3722 Z" fill="#e3dab2"/>
		<path d="M 129.3201 112.553 C 131.4196 108.7324 140.1624 104.9352 140.5405 100.5885 C 141.0788 94.3636 131.529 84.8511 121.433 83.3674 C 108.2313 81.4219 92.8509 84.0985 86.1684 89.6664 C 78.8158 95.7829 77.9844 108.5069 74.0443 114.0592 C 69.0539 121.0865 54.8303 131.9314 43.686 136.7711 C 40.4405 138.1797 37.4276 143.2664 39.5193 146.1069 C 43.8834 152.0233 60.7517 136.1835 63.8623 142.8388 C 65.5427 146.4388 55.5054 153.5529 57.3401 157.0729 C 60.9734 164.0504 77.026 145.7594 80.9378 150.3405 C 85.2696 155.4017 69.0539 171.5071 73.931 176.0413 C 79.017 180.7717 94.6524 171.102 100.1508 166.8656 C 108.453 160.4738 119.7985 143.3855 123.1447 133.4708 C 125.6867 125.9496 125.9681 118.6412 129.3201 112.553 L 129.3201 112.553 Z" fill="#414141"/>
		<path d="M 179.032 83.5919 L 181.7929 73.5601 L 198.3457 80.5649 L 214.5653 89.7601 L 212.7413 96.1353 L 179.032 83.5919 Z" fill="#52978e"/>
		<path d="M 156.4866 238.9409 C 156.4866 238.9409 182.555 203.1566 193.791 171.5042 C 200.7627 151.872 214.5653 93.9478 214.5653 93.9478 L 178.5406 80.5649 L 122.7402 179.1542 L 156.4866 238.9409 Z" fill="#8ecdc5"/>
	</g>
	<path d="M 770.3467 854.694 C 743.6795 788.5682 700.9382 798.1462 644.877 774.6738 C 588.7805 751.2054 558.9136 700.2343 552.535 641.7526 C 546.6889 588.1537 560.0801 532.4482 507.2273 493.8506 C 454.346 455.2198 399.3184 485.8648 345.3635 481.8763 C 286.6224 478.4246 239.6166 449.0193 228.445 391.0707 C 222.5979 337.4659 252.0065 294.8348 222.6506 248.7131 C 182.6781 175.3131 86.9949 169.2835 0 187.8077 L 0 1059.2035 C 135.2835 1116.6349 704.4494 1211.4719 784.2343 931.6696 C 788.064 918.2399 775.9262 869.1487 770.3467 854.694 Z" fill="#fbfaf9"/>
</svg>