<?xml version="1.0" standalone="no"?>
<!-- Generator: Adobe Fireworks 10, Export SVG Extension by Aaron Beall (http://fireworks.abeall.com) . Version: 0.6.1  -->
<!DOCTYPE svg PUBLIC "-//W3C//DTD SVG 1.1//EN" "http://www.w3.org/Graphics/SVG/1.1/DTD/svg11.dtd">
<svg id="Untitled-Page%201" viewBox="0 0 86 97" style="background-color:#ffffff00" version="1.1"
	xmlns="http://www.w3.org/2000/svg" xmlns:xlink="http://www.w3.org/1999/xlink" xml:space="preserve"
	x="0px" y="0px" width="86px" height="97px"
>
	<g>
		<path d="M 1.3457 76.4688 C 1.3457 76.4688 5.2441 55.335 8.668 48.8701 C 10.1992 45.9766 14.8623 41.3008 18.127 41.502 C 24.9902 41.9209 39.459 42.7881 39.459 42.7881 C 39.459 42.7881 41.3711 22.792 42.8301 9.4463 C 43.2432 5.6729 49.9844 2.5117 57.1328 3.6563 C 60.9102 4.2627 68.9961 7.9248 70.7617 11.3193 C 71.7129 13.1494 69.8252 19.4111 69.8252 19.4111 C 69.8252 19.4111 70.6738 21.0156 70.5713 21.9268 C 70.5137 22.4336 70.0859 22.8848 69.7441 23.2656 C 68.7363 24.3867 69.1602 28.5498 68.3457 29.8193 C 67.6875 30.8447 64.751 31.0615 63.5332 31.0986 C 60.3398 31.1943 59.627 32.5693 59.1211 34.0557 C 58.2207 36.6943 57.4844 45.542 57.4844 45.542 C 57.4844 45.542 71.877 47.5986 80.6777 49.8906 C 82.5898 50.3896 84.9355 52.626 84.4648 56.4229 C 83.2188 66.4346 79.04 95.5645 79.04 95.5645 L 0.2598 83.9912 L 1.3457 76.4688 Z" fill="#ebebd2"/>
		<path d="M 40.6719 28.8604 C 42.3047 29.2568 44.4805 28.3828 45.6201 27.2061 C 46.9678 25.9971 47.7842 24.2949 48.7217 22.6787 C 49.5723 21.1865 53.0195 17.1104 56.4238 15.292 C 60.1543 13.2979 66.0195 13.9639 70.1602 12.9268 C 71.2109 12.6621 73.1455 11.5908 73.666 9.1865 C 74.6582 4.6172 71.7324 3.2842 70.1631 2.5732 C 68.416 1.7793 63.7002 1.1572 62.0596 1.6396 C 60.209 2.1572 56.7158 0.333 54.8105 0.3643 C 52.5723 0.3467 47.2676 -0.5049 42.8457 5.5615 C 37.9844 12.2266 39.7559 23.5498 40.2598 26.7568 C 40.3633 27.3818 40.6855 27.9102 40.791 28.5371 L 40.791 28.5371 " fill="#303030"/>
		<path d="M 8.7461 85.3506 L 4.9766 84.748 L -0.0039 83.9492 C -0.0039 83.9492 3.3555 46.5674 15.0879 39.7441 C 20.3945 36.6592 39.459 42.7881 39.459 42.7881 C 39.459 42.7881 42.7793 47.9443 49.8066 49.417 C 54.7207 50.4463 58.2598 45.6953 58.2598 45.6953 C 58.2598 45.6953 76.7783 46.6719 82.0771 49.9785 C 86.2861 52.6035 86 56.8535 86 56.8535 L 79.4824 96.6865 L 73.9277 95.7939 L 70.0381 95.1719 L 8.7461 85.3506 Z" fill="#d06264"/>
		<path d="M 66.9121 16.9189 C 66.8594 17.083 66.9609 17.2334 67.1133 17.3125 C 67.4043 17.4639 67.8643 17.6318 68.1689 17.6553 C 68.3398 17.6689 68.5098 17.6182 68.5625 17.4521 L 68.5625 17.4521 C 68.6162 17.29 68.498 17.1084 68.3623 17.0088 C 68.1133 16.8252 67.6582 16.6865 67.3047 16.667 C 67.1328 16.6572 66.9648 16.7559 66.9121 16.9189 L 66.9121 16.9189 Z" fill="#303030"/>
		<path d="M 64.2832 15.0078 C 64.2832 15.1992 64.4404 15.3525 64.6328 15.3525 L 69.417 15.3428 C 69.6084 15.3418 69.7617 15.1855 69.7617 14.9951 L 69.7617 14.9951 C 69.7646 14.8037 69.6055 14.6494 69.4141 14.6494 L 64.6289 14.6582 C 64.4385 14.6592 64.2842 14.8154 64.2832 15.0078 L 64.2832 15.0078 Z" fill="#303030"/>
		<path d="M 55.7051 22.3291 C 55.3633 24.4678 56.8184 26.4766 58.9551 26.8174 C 61.0898 27.1592 63.1006 25.7051 63.4434 23.5674 C 63.7832 21.4287 62.3281 19.4199 60.1934 19.0771 C 58.0547 18.7373 56.0488 20.1943 55.7051 22.3291 Z" fill="#e4d2af"/>
	</g>
</svg>