<?xml version="1.0" standalone="no"?>
<!-- Generator: Adobe Fireworks 10, Export SVG Extension by Aaron Beall (http://fireworks.abeall.com) . Version: 0.6.1  -->
<!DOCTYPE svg PUBLIC "-//W3C//DTD SVG 1.1//EN" "http://www.w3.org/Graphics/SVG/1.1/DTD/svg11.dtd">
<svg id="Untitled-Page%201" viewBox="0 0 61 61" style="background-color:#ffffff00" version="1.1"
	xmlns="http://www.w3.org/2000/svg" xmlns:xlink="http://www.w3.org/1999/xlink" xml:space="preserve"
	x="0px" y="0px" width="61px" height="61px"
>
	<defs>
	<clipPath id="mask1">
		<path d="M 0 30.5 C 0 47.3444 13.6549 61 30.5005 61 C 47.3451 61 61 47.3444 61 30.5 C 61 13.6556 47.3451 0 30.5005 0 C 13.6549 0 0 13.6556 0 30.5 Z" fill="none"/>
	</clipPath>
	</defs>
	<path d="M 61 30.5 C 61 47.3444 47.3451 61 30.5005 61 C 13.6549 61 0 47.3444 0 30.5 C 0 13.6556 13.6549 0 30.5005 0 C 47.3451 0 61 13.6556 61 30.5 Z" fill="#9ca6a2"/>
		<path d="M 0 30.5 C 0 47.3444 13.6549 61 30.5005 61 C 47.3451 61 61 47.3444 61 30.5 C 61 13.6556 47.3451 0 30.5005 0 C 13.6549 0 0 13.6556 0 30.5 Z" fill="none"/>
	<g clip-path="url(#mask1)">
		<g>
			<g>
				<path d="M 0.9605 58.8177 C 0.9605 58.8177 1.9238 44.8684 3.6626 40.4363 C 4.441 38.4537 7.1099 35.0868 9.2374 34.9762 C 13.7009 34.7422 23.1174 34.237 23.1174 34.237 C 23.1174 34.237 22.8815 21.1688 22.8433 12.4328 C 22.8316 9.9627 26.9583 7.4241 31.6665 7.6385 C 34.1543 7.7501 39.7623 9.3851 41.1526 11.4499 C 41.9045 12.563 40.7884 15.7332 41.1193 16.6789 C 41.275 17.1224 41.6793 17.7647 41.7205 18.5175 C 41.74 18.8504 41.4561 19.1138 41.2632 19.385 C 40.6944 20.1858 41.276 22.2124 40.8422 23.0936 C 40.4927 23.8044 38.703 24.4329 37.9119 24.4995 C 35.2391 24.7266 35.4075 26.1452 35.1902 27.1448 C 34.8034 28.9169 34.9787 34.6883 34.9787 34.6883 C 34.9787 34.6883 44.4344 34.9595 50.2911 35.7946 C 51.5668 35.9758 53.2478 37.2495 53.2204 39.7372 C 53.1539 46.3027 52.5958 65.4419 52.5958 65.4419 L 0.8136 63.7619 L 0.9605 58.8177 Z" fill="#ebebd2"/>
				<path d="M 6.3991 64.0164 L 3.9172 63.9029 L 0.6383 63.754 C 0.6383 63.754 0.0597 39.3397 7.1402 34.0647 C 10.3437 31.6778 23.1174 34.237 23.1174 34.237 C 23.1174 34.237 25.6463 37.3268 30.2968 37.7615 C 33.5502 38.0641 35.4897 34.7324 35.4897 34.7324 C 35.4897 34.7324 47.5331 34.0001 51.2036 35.7467 C 54.1172 37.133 54.2465 39.9037 54.2465 39.9037 L 52.9659 66.1341 L 49.3062 65.9686 L 46.7469 65.8511 L 6.3991 64.0164 Z" fill="#52978e"/>
				<path d="M 22.8374 25.6949 C 23.9222 25.831 25.2645 25.1055 25.9156 24.2616 C 26.6978 23.3814 27.1002 22.2203 27.5868 21.1071 C 28.0274 20.0791 29.9561 17.189 32.0239 15.7635 C 34.2894 14.2 38.1293 14.198 40.7316 13.2209 C 41.3905 12.9762 42.5624 12.1391 42.723 10.5472 C 43.0275 7.519 41.0371 6.8729 39.9699 6.5282 C 38.7833 6.1444 35.6875 6.0896 34.6624 6.5224 C 33.5042 6.9943 31.1114 6.072 29.8817 6.2326 C 28.4317 6.3853 24.9395 6.2247 22.5271 10.4718 C 19.8758 15.1399 21.8535 22.3299 22.4155 24.3653 C 22.529 24.7628 22.7767 25.081 22.8893 25.4775 L 22.8893 25.4775 " fill="#e2605c"/>
				<path d="M 39.731 16.115 C 39.7291 16.0034 39.6351 15.9329 39.5244 15.9162 C 39.313 15.8859 38.9948 15.88 38.8029 15.9309 C 38.6932 15.9593 38.6002 16.0269 38.6031 16.1404 L 38.6031 16.1404 C 38.6051 16.2501 38.7157 16.3372 38.8215 16.3695 C 39.0143 16.4302 39.3237 16.4185 39.545 16.3539 C 39.6517 16.3235 39.734 16.2266 39.731 16.115 L 39.731 16.115 Z" fill="#303030"/>
				<path d="M 37.3969 15.0136 C 37.4107 15.1379 37.5242 15.225 37.6476 15.2103 L 40.7394 14.852 C 40.8638 14.8373 40.9519 14.7247 40.9382 14.6024 L 40.9382 14.6024 C 40.9255 14.478 40.8109 14.3899 40.6876 14.4036 L 37.5947 14.7619 C 37.4714 14.7776 37.3832 14.8892 37.3969 15.0136 L 37.3969 15.0136 Z" fill="#303030"/>
				<path opacity="0.298" d="M 33.9272 19.7071 C 33.889 20.5579 34.5479 21.2784 35.3977 21.3176 C 36.2485 21.3558 36.9701 20.6969 37.0083 19.8461 C 37.0464 18.9953 36.3875 18.2747 35.5377 18.2356 C 34.6859 18.1974 33.9663 18.8563 33.9272 19.7071 Z" fill="#e4d2af"/>
			</g>
		</g>
	</g>
</svg>