<?xml version="1.0" standalone="no"?>
<!-- Generator: Adobe Fireworks 10, Export SVG Extension by Aaron Beall (http://fireworks.abeall.com) . Version: 0.6.1  -->
<!DOCTYPE svg PUBLIC "-//W3C//DTD SVG 1.1//EN" "http://www.w3.org/Graphics/SVG/1.1/DTD/svg11.dtd">
<svg id="Untitled-Page%201" viewBox="0 0 1164 913" style="background-color:#ffffff00" version="1.1"
	xmlns="http://www.w3.org/2000/svg" xmlns:xlink="http://www.w3.org/1999/xlink" xml:space="preserve"
	x="0px" y="0px" width="1164px" height="913px"
>
	<g>
		<g>
			<path d="M 741.9641 263.9312 C 741.9641 263.9312 764.5959 219.3216 776.1487 204.7318 C 781.3225 198.2 795.22 183.4011 803.3215 185.3882 C 820.3459 189.5637 849.7815 196.3301 849.7815 196.3301 C 849.7815 196.3301 863.7375 147.2412 873.5178 114.5573 C 876.2766 105.3192 894.6467 100.499 912.0627 106.6166 C 921.2698 109.8523 937.3889 124.2184 940.2639 133.5043 C 941.8108 138.5063 936.261 153.0707 936.261 153.0707 C 936.261 153.0707 937.9592 156.5945 937.0959 158.6686 C 936.4182 160.2982 934.9006 160.1985 934.1428 161.2536 C 932.552 163.4449 931.176 172.9399 928.5569 175.7389 C 926.4319 178.0025 920.4592 178.1197 917.4143 177.4749 C 907.1272 175.3022 905.0803 179.9896 903.1331 183.4744 C 899.6702 189.6594 893.7668 211.421 893.7668 211.421 C 893.7668 211.421 919.5491 220.8906 940.5784 230.6298 C 945.1584 232.7508 950.1975 240.3329 947.2776 249.5964 C 939.5667 274.0475 926.4495 445.4116 926.4495 445.4116 L 711.72 429.7159 L 741.9641 263.9312 Z" fill="#e3dab2"/>
			<path d="M 753.2131 288.6773 L 757.51 272.926 L 791.3557 207.989 C 791.3557 207.989 765.5823 197.3226 798.1516 185.6207 C 812.887 180.3276 849.7815 196.3301 849.7815 196.3301 C 849.7815 196.3301 855.7581 210.7264 872.717 217.61 C 884.5715 222.4186 893.7668 211.421 893.7668 211.421 C 893.7668 211.421 931.8459 221.4045 943.637 232.0796 C 952.9983 240.5586 948.1428 261.7663 948.1428 261.7663 L 930.6116 263.133 C 930.6116 263.133 917.5627 310.012 914.6848 324.4162 C 908.5579 355.071 901.8459 443.7078 901.8459 443.7078 L 753.2131 288.6773 Z" fill="#5d5d5d"/>
		</g>
		<g>
			<path d="M 842.009 246.2669 C 842.009 246.2669 847.2737 191.9455 843.4084 173.7645 C 841.6721 165.6323 833.5198 150.9565 825.3635 149.1648 C 808.2522 145.4035 772.1565 137.4121 772.1565 137.4121 C 772.1565 137.4121 781.4885 87.2496 787.2659 53.6405 C 788.9065 44.1406 774.5823 31.7177 756.2434 29.5196 C 746.55 28.3599 723.8079 31.0504 717.0989 38.1089 C 713.4749 41.9102 715.7405 54.8363 713.8596 58.2663 C 712.967 59.8754 710.9915 62.0852 710.3459 64.9614 C 710.054 66.2275 710.9856 67.4243 711.5559 68.5947 C 713.2346 72.0365 709.6809 79.4711 710.7932 83.1405 C 711.6799 86.1007 718.2053 89.6685 721.219 90.4325 C 731.4143 93.0253 729.8479 98.379 730.0413 102.363 C 730.3967 109.4332 726.0012 131.5426 726.0012 131.5426 C 726.0012 131.5426 689.2542 126.522 666.0627 125.9769 C 661.012 125.8567 669.0608 137.7335 667.5598 147.3281 C 663.5881 172.6488 653.1741 242.8134 653.1741 242.8134 L 839.3899 265.3986 L 842.009 246.2669 Z" fill="#e3dab2"/>
			<path d="M 817.6213 262.794 L 827.2961 263.9507 L 840.0725 265.4826 C 840.0725 265.4826 858.052 171.8516 834.0608 146.9979 C 823.2083 135.7571 772.1565 137.4121 772.1565 137.4121 C 772.1565 137.4121 760.3811 147.6886 742.1213 146.3766 C 729.3489 145.4583 723.9924 131.3863 723.9924 131.3863 C 723.9924 131.3863 677.8879 120.8401 662.5588 125.2119 C 650.3967 128.6781 669.6155 151.7791 669.6155 151.7791 L 660.3674 242.3025 L 650.4192 242.7821 L 657.137 257.3192 L 817.6213 262.794 Z" fill="#5d5d5d"/>
		</g>
		<path d="M 694.1721 233.0107 C 676.7542 230.9532 640.0452 226.5726 640.0452 226.5726 C 640.0452 226.5726 644.3284 175.7369 646.7288 141.7224 C 647.4104 132.1072 631.9221 121.1595 613.4534 120.7844 C 603.6917 120.589 591.3167 124.8641 585.3469 132.5488 C 582.1233 136.6891 584.0198 153.1918 584.0198 153.1918 C 584.0198 153.1918 591.4641 184.6047 594.5022 185.2505 C 602.4768 186.9308 594.053 191.9123 594.6448 195.8543 C 595.7073 202.8541 593.5374 225.2996 593.5374 225.2996 C 593.5374 225.2996 556.467 223.9289 533.3342 225.6757 C 528.301 226.0587 521.3948 230.5898 520.8518 240.285 C 519.4319 265.8714 522.1897 415.8666 522.1897 415.8666 L 668.5588 420.7113 C 668.5588 420.7113 702.4534 233.9857 694.1721 233.0107 Z" fill="#e3dab2"/>
		<g>
			<path d="M 778.7444 104.7038 C 774.4622 104.5348 769.7317 100.878 767.762 97.2125 C 765.3049 93.3213 764.4983 88.5919 763.3303 83.9944 C 762.2922 79.7544 756.6956 67.3901 749.6233 60.5739 C 741.8655 53.1022 727.0168 50.6305 717.5823 45.2035 C 715.1936 43.8299 711.1985 39.8606 711.6077 33.6257 C 712.3792 21.7792 720.4924 20.5668 724.8411 19.923 C 729.6799 19.202 741.6897 20.9751 745.3743 23.3052 C 749.5481 25.8619 759.4006 23.8425 764.051 25.2532 C 769.553 26.7724 783.1584 28.3941 789.7551 46.2938 C 797.0061 65.9657 784.719 92.3785 781.2317 99.86 C 780.5393 101.3118 779.3733 102.3786 778.679 103.8333 L 778.679 103.8333 " fill="#303030"/>
		</g>
		<path d="M 683.1155 429.497 C 683.1155 429.497 708.5295 230.5458 703.0432 221.0069 C 695.261 207.479 662.0276 224.3783 646.5217 226.5726 C 629.3108 229.0071 615.6594 229.0071 597.9924 225.3357 C 582.8821 222.1958 562.8303 170.8766 548.0227 176.7441 C 536.2639 181.3964 524.052 277.0946 524.052 277.0946 L 527.0481 418.4673 L 541.4016 418.7555 L 551.1428 431.4822 L 683.1155 429.497 Z" fill="#8fcfc5"/>
		<g>
			<path d="M 851.4231 209.9546 C 855.3616 211.6526 876.5393 163.0356 879.5959 159.3915 C 882.3801 156.0211 907.175 129.6102 927.094 137.4121 C 931.0754 138.9645 935.1838 141.2359 939.6194 140.9467 C 942.3801 140.806 949.5491 129.6824 941.7268 119.5339 C 927.1965 100.6885 907.6936 95.3846 896.4622 97.2311 C 862.5608 102.8065 846.1233 124.2701 842.9358 127.9318 C 829.3518 143.5288 819.1565 187.262 818.0588 196.248 C 817.0784 204.3753 800.1145 219.2444 823.3645 220.4256 C 838.0891 221.1759 842.0168 205.7752 842.0061 207.395 L 842.0061 207.395 " fill="#303030"/>
		</g>
		<path d="M 717.6702 57.1214 C 717.6125 57.5346 718.0198 57.9928 718.3909 58.1804 C 719.0334 58.5037 720.1565 58.6601 720.8635 58.4998 C 721.2708 58.408 721.7971 58.1169 721.8528 57.6968 L 721.8528 57.6968 C 721.9133 57.2894 721.6174 56.9015 721.2092 56.8459 L 718.5256 56.4756 C 718.1116 56.4209 717.7268 56.7101 717.6702 57.1214 L 717.6702 57.1214 Z" stroke="#303030" stroke-width="3" fill="#303030"/>
		<path d="M 717.2512 49.6741 C 717.1194 50.1176 717.3752 50.5846 717.8235 50.7184 L 728.9827 54.0508 C 729.4309 54.1827 729.9006 53.9297 730.0334 53.49 L 730.0334 53.49 C 730.1741 53.0445 729.9104 52.5746 729.467 52.4408 L 718.3049 49.1045 C 717.8596 48.9746 717.3899 49.2286 717.2512 49.6741 L 717.2512 49.6741 Z" stroke="#303030" stroke-width="3" fill="#303030"/>
		<path d="M 723.6799 74.9898 C 722.9456 80.2565 726.6331 85.1081 731.9163 85.8369 C 737.1975 86.5647 742.0784 82.8963 742.8127 77.6344 C 743.5432 72.3764 739.8528 67.5181 734.5764 66.7863 C 729.2874 66.0575 724.4182 69.7338 723.6799 74.9898 Z" fill="#e4caac"/>
		<path d="M 553.6311 60.9051 C 553.6311 60.9051 550.0354 48.3669 551.4866 39.8557 C 552.5823 33.4215 558.2639 19.5312 561.1252 16.2096 C 561.719 15.5081 564.4846 16.1588 564.4846 16.1588 C 564.4846 16.1588 566.9338 8.2904 568.8538 6.9315 C 569.7229 6.3121 572.5608 7.1806 572.8948 6.8602 C 573.2249 6.5407 575.2737 2.205 576.8196 1.2642 C 577.4163 0.889 579.511 0.9809 579.9553 1.5651 C 580.6252 2.4482 580.5686 4.4217 580.7434 5.5999 C 580.8557 6.3267 585.1721 5.0684 585.3469 6.6501 C 585.9573 12.29 581.6584 28.398 580.7092 33.1001 C 580.3918 34.6661 580.7014 38.2613 582.0549 38.3414 C 584.1545 38.4528 586.1135 32.1222 587.0432 30.8932 C 587.9495 29.6944 591.5461 29.6544 592.1487 31.067 C 594.3362 36.2029 586.5872 65.1187 586.5872 65.1187 L 553.6311 60.9051 Z" fill="#e3dab2"/>
		<path d="M 528.0735 225.6874 C 528.0735 225.6874 521.7854 171.8438 527.8293 136.0434 C 531.5725 113.8304 549.8167 52.9859 549.8167 52.9859 L 587.3333 62.2318 C 587.3333 62.2318 576.4397 166.6493 583.4221 198.2576 C 585.6721 208.4423 592.5374 227.6062 592.5374 227.6062 L 528.0735 225.6874 Z" fill="#8fcfc5"/>
		<path d="M 691.0784 61.9407 C 691.0784 61.9407 695.8635 49.8011 695.2356 41.1892 C 694.7639 34.6827 690.4426 20.3147 687.9124 16.7352 C 687.3889 15.979 684.5725 16.3659 684.5725 16.3659 C 684.5725 16.3659 682.8909 8.3002 681.1116 6.7634 C 680.304 6.0649 677.3958 6.6589 677.095 6.3082 C 676.7981 5.9594 675.1741 1.4478 673.7249 0.3654 C 673.1702 -0.0664 671.0745 -0.1739 670.5764 0.3673 C 669.8245 1.1821 669.6917 3.1516 669.4045 4.3064 C 669.2219 5.0196 665.0452 3.3549 664.7209 4.9141 C 663.5706 10.469 666.304 26.9131 666.7952 31.6864 C 666.9622 33.274 666.3079 36.8223 664.9534 36.7724 C 662.8518 36.6845 661.509 30.1956 660.7034 28.8845 C 659.9163 27.6047 656.3401 27.2237 655.6057 28.5719 C 652.9338 33.4762 657.8684 62.9977 657.8684 62.9977 L 691.0784 61.9407 Z" fill="#e3dab2"/>
		<path d="M 703.5237 240.1405 C 703.5237 240.1405 712.1213 175.4018 709.5471 139.1901 C 707.9534 116.7212 695.637 54.4201 695.637 54.4201 L 654.5813 54.8363 C 654.5813 54.8363 660.4045 175.48 650.4192 206.2774 C 647.2024 216.2012 638.5256 234.6246 638.5256 234.6246 L 703.5237 240.1405 Z" fill="#8fcfc5"/>
		<path d="M 434.7737 326.0125 C 434.7737 326.0125 422.0969 287.9818 426.0032 269.7997 C 427.7424 261.6705 431.0139 239.3335 439.2668 237.532 C 456.5901 233.7619 482.9221 222.3814 482.9221 222.3814 C 482.9221 222.3814 473.4426 172.2248 467.5725 138.6206 C 465.9026 129.1197 480.3909 116.6851 498.9514 114.4752 C 508.7639 113.3127 531.3674 115.7599 538.1555 122.8086 C 541.8245 126.6119 542.5569 144.2361 542.5569 144.2361 C 542.5569 144.2361 545.5042 146.7195 545.72 148.7672 C 545.9661 151.107 544.8674 152.1738 544.2893 153.3403 C 543.6838 154.5625 546.8069 163.8328 545.0725 169.3936 C 544.1516 172.3508 538.8147 174.8547 535.7649 175.6207 C 525.4475 178.2164 525.719 183.3181 525.5198 187.303 C 525.1643 194.3781 529.6223 216.4816 529.6223 216.4816 C 529.6223 216.4816 554.2112 223.2392 577.6799 222.6765 C 582.7903 222.5573 586.4709 228.802 587.9983 238.3956 C 592.0256 263.7143 578.3049 326.8097 578.3049 326.8097 L 452.9553 416.7654 L 434.7737 326.0125 Z" fill="#ebedd2"/>
		<path d="M 444.9055 431.4822 L 403.5198 432.1348 L 401.4006 338.2518 C 401.4006 338.2518 416.2366 258.5882 431.2678 235.5859 C 439.8362 222.4694 482.9221 222.3814 482.9221 222.3814 C 482.9221 222.3814 494.842 232.6512 513.3284 231.3264 C 526.2542 230.4003 529.6223 216.4816 529.6223 216.4816 C 529.6223 216.4816 561.218 216.086 576.7327 220.451 C 589.0481 223.9133 591.3616 234.4859 591.3616 234.4859 C 591.3616 234.4859 609.7874 288.8688 613.3909 307.5989 C 619.259 338.1111 628.2493 423.9382 628.2493 423.9382 L 593.0354 431.4822 L 444.9055 431.4822 Z" fill="#303030"/>
		<g>
			<path d="M 647.7795 191.0877 C 640.8821 203.0241 627.385 204.554 620.5881 204.5052 C 615.9504 204.4729 600.4006 200.869 594.2034 192.9693 C 574.3245 167.636 586.6409 145.7826 581.3635 141.8142 C 577.1194 138.6245 579.4495 120.4464 586.3108 115.9416 C 590.5706 113.1446 599.2239 111.5844 603.3547 113.5403 C 608.0217 115.6798 618.9387 110.9455 624.0403 111.517 C 635.4495 112.7949 643.6917 114.9188 652.5452 132.0858 C 662.2756 150.9585 653.1741 184.5471 647.7795 191.0877 L 647.7795 191.0877 Z" fill="#303030"/>
		</g>
		<g>
			<path d="M 539.6936 143.3207 C 539.7112 143.7388 539.3743 144.0241 538.9592 144.112 C 538.1702 144.2801 536.967 144.3758 536.2278 144.2361 C 535.8108 144.1589 535.4397 143.9303 535.4231 143.5092 L 535.4231 143.5092 C 535.4006 143.0979 535.7991 142.7482 536.1897 142.5997 C 536.9026 142.3301 538.0725 142.2988 538.927 142.4805 C 539.3401 142.5684 539.675 142.9055 539.6936 143.3207 L 539.6936 143.3207 Z" fill="#303030"/>
			<path d="M 540.8167 135.9437 C 540.9084 136.398 540.6057 136.8406 540.1428 136.9324 L 528.5803 139.2214 C 528.1174 139.3113 527.6682 139.0163 527.5745 138.5649 L 527.5745 138.5649 C 527.4749 138.1096 527.7844 137.6661 528.2444 137.5743 L 539.8069 135.2804 C 540.2698 135.1925 540.719 135.4875 540.8167 135.9437 L 540.8167 135.9437 Z" fill="#303030"/>
		</g>
		<path d="M 519.8674 157.3077 C 520.2483 165.644 513.6956 172.7045 505.2229 173.0786 C 496.7571 173.4557 489.5745 167.0088 489.1887 158.6725 C 488.8108 150.3372 495.3694 143.2777 503.8342 142.8977 C 512.3147 142.5255 519.4768 148.9811 519.8674 157.3077 Z" fill="#e4d2af"/>
		<path d="M 929.2249 150.5365 C 929.2434 150.9546 928.9182 151.3102 928.5002 151.3278 L 925.801 151.4528 C 925.3821 151.4665 925.0227 151.1461 925.0061 150.725 L 925.0061 150.725 C 924.9846 150.3137 925.3137 149.9542 925.7268 149.9366 L 928.4319 149.8155 C 928.8499 149.7979 929.2073 150.1222 929.2249 150.5365 L 929.2249 150.5365 Z" stroke="#202020" stroke-width="3" fill="#303030"/>
		<path d="M 933.7727 142.7423 C 933.8049 143.2054 933.4514 143.605 932.9856 143.6392 L 921.3616 144.4657 C 920.8967 144.4979 920.4944 144.1491 920.4612 143.688 L 920.4612 143.688 C 920.4211 143.2249 920.7795 142.8224 921.2463 142.7892 L 932.8674 141.9588 C 933.3313 141.9295 933.7346 142.2783 933.7727 142.7423 L 933.7727 142.7423 Z" fill="#303030"/>
		<path d="M 919.6135 162.2696 C 919.8206 166.8154 916.2913 170.6626 911.7268 170.8668 C 907.1653 171.072 903.3 167.5579 903.0901 163.0121 C 902.887 158.4722 906.4182 154.6201 910.9788 154.4149 C 915.5461 154.2137 919.4026 157.7288 919.6135 162.2696 Z" fill="#e4caac"/>
		<path d="M 894.6975 423.5806 C 894.6975 423.5806 881.426 297.1749 876.6526 279.2244 C 874.51 271.1782 867.6672 252.0983 859.4329 250.7208 C 842.1428 247.8173 812.4368 242.3787 812.4368 242.3787 C 812.4368 242.3787 819.218 191.8146 823.2952 157.9613 C 824.4446 148.3852 809.5168 136.697 791.0833 135.424 C 781.3459 134.7528 760.8206 141.5592 754.4817 148.9362 C 751.0579 152.9183 750.3049 169.4737 750.3049 169.4737 C 750.3049 169.4737 746.5667 171.4295 746.6868 173.1783 C 746.7766 174.4786 747.8069 175.5493 748.426 176.6816 C 750.2893 180.0404 745.7151 188.5066 747.01 192.1174 C 748.0549 195.0317 754.8489 197.7134 757.8948 198.326 C 768.2073 200.4059 768.2024 205.5114 768.6057 209.4818 C 769.3127 216.5256 766.0471 238.8304 766.0471 238.8304 C 766.0471 238.8304 738.6047 237.3278 715.4143 237.9433 C 710.3674 238.0771 702.719 243.042 701.7034 252.6972 C 699.0188 278.1908 677.2932 429.1434 677.2932 429.1434 L 892.2561 442.1877 L 894.6975 423.5806 Z" fill="#ebedd2"/>
		<path d="M 869.6956 440.6304 L 872.0422 426.9961 L 894.0442 426.6932 C 894.0442 426.6932 889.304 276.6003 864.0823 252.9776 C 852.677 242.2976 812.4368 242.3787 812.4368 242.3787 C 812.4368 242.3787 801.1985 253.2316 782.8889 252.8408 C 770.0901 252.5634 766.0471 238.8304 766.0471 238.8304 C 766.0471 238.8304 728.2952 231.9321 713.2102 237.0611 C 701.2405 241.1379 699.553 254.5857 699.553 254.5857 L 683.7112 326.8195 L 672.3811 429.8273 L 711.72 429.7159 L 869.6956 440.6304 Z" fill="#edea6f"/>
		<g>
			<path d="M 806.7932 245.2734 C 805.6721 243.7923 808.26 203.8594 806.1077 200.2994 C 803.4622 196.5255 802.4124 191.8468 801.0178 187.3157 C 799.7659 183.1344 799.9241 178.3659 800.2307 173.9432 C 800.4456 170.8922 800.4231 163.8923 797.1077 162.125 C 794.3049 160.5658 793.0247 163.2427 791.2756 164.626 C 790.1526 165.5151 787.0334 165.5424 785.2698 163.7165 C 783.4993 162.0527 782.3958 160.0461 781.7053 157.6076 C 780.8723 154.8175 775.2874 146.2984 766.1292 149.8936 C 762.1604 151.4538 757.1868 150.2981 753.2131 148.3158 C 750.7249 147.1171 746.9397 144.5653 746.9397 140.5598 C 746.9397 135.3781 747.4163 131.8259 758.0647 125.2647 C 762.2268 122.7002 770.7815 117.791 779.9202 122.243 C 784.1018 124.278 792.1233 120.7062 806.9583 124.828 C 836.1897 132.9513 842.095 164.9387 842.6125 169.7492 C 843.5237 178.8632 867.0159 246.7339 864.5256 255.4395 C 862.26 263.3069 815.4417 271.4459 806.7932 245.2734 L 806.7932 245.2734 Z" fill="#303030"/>
		</g>
		<path d="M 754.3391 166.7245 C 754.3206 167.1427 754.6467 167.4983 755.0637 167.5159 L 757.762 167.6399 C 758.1819 167.6546 758.5413 167.3342 758.5569 166.9121 L 758.5569 166.9121 C 758.5793 166.5018 758.2502 166.1413 757.8372 166.1237 L 755.1311 166.0035 C 754.7141 165.986 754.3577 166.3103 754.3391 166.7245 L 754.3391 166.7245 Z" stroke="#303030" stroke-width="3" fill="#303030"/>
		<path d="M 753.2288 159.3476 C 753.1389 159.8038 753.4377 160.2444 753.8948 160.3363 L 765.3186 162.6252 C 765.7756 162.7151 766.219 162.4201 766.3127 161.9687 L 766.3127 161.9687 C 766.4104 161.5135 766.1057 161.069 765.6506 160.9781 L 754.2268 158.6842 C 753.7698 158.5963 753.3254 158.8913 753.2288 159.3476 L 753.2288 159.3476 Z" stroke="#303030" stroke-width="3" fill="#303030"/>
		<path d="M 762.2444 182.6039 C 762.0413 187.0842 765.5237 190.8787 770.0217 191.0799 C 774.5178 191.2812 778.3342 187.8169 778.5383 183.3366 C 778.7385 178.8583 775.2551 175.0618 770.762 174.8577 C 766.2561 174.6584 762.4534 178.1265 762.2444 182.6039 Z" fill="#e4caac"/>
		<g>
			<path d="M 488.2766 224.5346 C 492.6155 224.3627 490.4338 171.4061 491.6116 166.8066 C 492.6565 162.5657 503.5881 128.0529 525.1877 126.4527 C 529.5081 126.1322 534.2561 126.4018 538.1721 124.2203 C 540.6252 122.9024 542.2463 109.78 530.6301 104.0258 C 509.0569 93.3408 488.9348 97.0034 479.5139 103.5236 C 451.0745 123.216 445.5823 149.6543 444.2942 154.3348 C 438.803 174.2568 427.9768 229.5054 430.9495 238.0635 C 433.6428 245.8068 445.6125 255.1005 467.3284 246.1057 C 481.0862 240.4062 477.8538 224.8375 478.5588 226.2961 L 478.5588 226.2961 " fill="#303030"/>
		</g>
	</g>
	<path d="M 178.2727 412.4746 C 253.4397 362.5505 367.051 275.807 458.6995 270.7444 C 478.4221 272.206 498.1721 273.6851 513.3674 282.7629 C 543.4426 304.8439 533.4954 331.8605 539.3303 360.071 C 551.8713 404.6473 594.4084 419.7158 638.1038 419.0183 C 811.6956 412.3105 982.2405 237.7176 1164.0002 325.3687 L 1164.0002 864.2149 C 1162.7991 865.0561 1161.5491 865.866 1160.2463 866.6397 C 1097.8108 905.6142 1056.7502 870.8015 1012.051 831.7626 C 971.2834 793.0098 895.8918 739.7748 869.9739 821.1548 C 864.5667 840.5825 870.679 864.8528 861.3215 883.9845 C 843.4768 910.4247 803.7122 911.4173 771.8557 912.9999 C 700.5237 911.642 677.0276 854.3575 636.8489 807.7325 C 604.2834 765.6249 541.9084 697.4865 491.0129 741.2852 C 444.3752 781.4486 453.262 821.7859 385.2971 828.6158 C 345.5334 829.627 306.6604 818.7798 272.3264 800.3409 C 222.4993 776.7895 182.3206 730.1518 137.6174 691.107 C 88.968 651.77 36.3879 612.1459 9.2151 550.6019 C -38.0671 439.97 108.5315 442.9673 178.2727 412.4746 Z" fill="#f8f8f7"/>
</svg>