<?xml version="1.0" standalone="no"?>
<!-- Generator: Adobe Fireworks 10, Export SVG Extension by Aaron Beall (http://fireworks.abeall.com) . Version: 0.6.1  -->
<!DOCTYPE svg PUBLIC "-//W3C//DTD SVG 1.1//EN" "http://www.w3.org/Graphics/SVG/1.1/DTD/svg11.dtd">
<svg id="Untitled-Page%201" viewBox="0 0 789 1024" style="background-color:#ffffff00" version="1.1"
	xmlns="http://www.w3.org/2000/svg" xmlns:xlink="http://www.w3.org/1999/xlink" xml:space="preserve"
	x="0px" y="0px" width="789px" height="1024px"
>
	<g>
		<path d="M 98.9364 47.1798 C 98.9364 47.1798 98.0806 34.9009 101.6113 27.7014 C 104.2775 22.2607 113.5333 11.4839 117.3278 9.3422 C 118.127 8.8891 120.8927 10.2719 120.8927 10.2719 C 120.8927 10.2719 125.3213 3.9426 127.667 3.2912 C 128.727 2.9865 131.5192 4.5959 131.9471 4.4025 C 132.3701 4.215 135.5511 0.9297 137.4005 0.5342 C 138.1157 0.377 140.309 1.0694 140.6421 1.7266 C 141.1423 2.7111 140.6118 4.4611 140.5268 5.5667 C 140.476 6.2522 145.3237 6.3831 145.1381 7.848 C 144.4572 13.0767 136.1373 26.2492 134.032 30.183 C 133.3315 31.4897 132.8147 34.8023 134.2293 35.2691 C 136.4177 35.983 139.967 30.8793 141.2381 30.0501 C 142.4749 29.2454 146.2792 30.2611 146.584 31.7006 C 147.688 36.9372 132.7238 60.5691 132.7238 60.5691 L 98.9364 47.1798 Z" fill="#e3dab2"/>
		<path d="M 24.4261 186.6 C 24.4261 186.6 31.7768 139.0315 48.5279 109.9013 C 58.9169 91.8282 96.1276 42.3876 96.1276 42.3876 L 137.0244 62.7069 L 99.5001 175.2382 L 24.4261 186.6 Z" fill="#8ecdc5"/>
		<path d="M 213.9459 91.7921 C 213.9459 91.7921 223.8318 84.451 227.006 77.0864 C 229.4015 71.5246 231.5742 57.4879 230.7321 53.2162 C 230.5582 52.3099 227.7035 51.1175 227.7035 51.1175 C 227.7035 51.1175 229.6301 43.6328 228.6082 41.4296 C 228.1431 40.4236 225.1097 39.3504 224.9758 38.904 C 224.8429 38.4577 225.2699 33.9048 224.3662 32.2416 C 224.0213 31.5951 222.0664 30.3871 221.3552 30.558 C 220.2805 30.8226 219.2957 32.3608 218.5093 33.147 C 218.0228 33.6284 214.7655 30.0287 213.7759 31.1293 C 210.249 35.0465 205.6534 49.9299 204.0257 54.0903 C 203.4923 55.4722 201.3156 58.0182 200.0456 57.2467 C 198.0741 56.0542 199.6372 50.0373 199.4438 48.5314 C 199.2484 47.0665 196.0088 44.8428 194.7162 45.543 C 190.0141 48.1105 181.7929 74.847 181.7929 74.847 L 213.9459 91.7921 Z" fill="#e3dab2"/>
		<path d="M 102.175 147.5065 C 102.175 147.5065 123.3371 149.6843 141.1931 165.3119 C 162.6825 184.1194 164.8416 196.66 165.2822 209.1576 C 166.1937 235.3228 145.0658 313.6407 145.0658 313.6407 L 9.4062 312.1143 C 9.4062 312.1143 3.7066 270.5382 5.5775 256.8023 C 9.4551 228.3752 25.9394 178.8721 25.9394 178.8721 L 102.175 147.5065 Z" fill="#8ecdc5"/>
		<path d="M 140.9352 99.4194 C 140.9352 99.4194 141.7637 116.6008 140.3109 124.5201 C 138.1684 136.2062 130.339 140.1448 127.9777 141.6918 C 124.6453 143.8813 122.45 153.4423 122.45 153.4423 L 103.6034 146.4791 L 111.8128 120.3383 L 128.8716 101.1841 L 140.9352 99.4194 Z" fill="#e3dab2"/>
		<path d="M 129.3201 112.6065 C 131.4196 108.7841 140.1624 104.9851 140.5405 100.6362 C 141.0788 94.4084 131.529 84.8914 121.433 83.407 C 108.2313 81.4606 92.8509 84.1385 86.1684 89.709 C 78.8158 95.8284 77.9844 108.5585 74.0443 114.1134 C 69.0539 121.144 54.8303 131.9941 43.686 136.8361 C 40.4405 138.2453 37.4276 143.3344 39.5193 146.1763 C 43.8834 152.0955 60.7517 136.2482 63.8623 142.9067 C 65.5427 146.5084 55.5054 153.6259 57.3401 157.1475 C 60.9734 164.1283 77.026 145.8287 80.9378 150.4119 C 85.2696 155.4756 69.0539 171.5886 73.931 176.1249 C 79.017 180.8575 94.6524 171.1833 100.1508 166.9448 C 108.453 160.55 119.7985 143.4536 123.1447 133.5342 C 125.6867 126.0094 125.9681 118.6976 129.3201 112.6065 L 129.3201 112.6065 Z" fill="#414141"/>
		<path d="M 179.032 83.6316 L 181.7929 73.595 L 198.3457 80.6031 L 214.5653 89.8028 L 212.7413 96.181 L 179.032 83.6316 Z" fill="#52978e"/>
		<path d="M 156.4866 239.0544 C 156.4866 239.0544 182.555 203.2531 193.791 171.5856 C 200.7627 151.9442 214.5653 93.9924 214.5653 93.9924 L 178.5406 80.6031 L 122.7402 179.2393 L 156.4866 239.0544 Z" fill="#8ecdc5"/>
	</g>
	<path d="M 729.494 1024 C 754.7944 999.2196 773.7476 968.9077 784.2343 932.1122 C 788.064 918.676 775.9262 869.5616 770.3467 855.1 C 743.6795 788.9428 700.9382 798.5253 644.877 775.0418 C 588.7805 751.5623 558.9136 700.5668 552.535 642.0574 C 546.6889 588.433 560.0801 532.7011 507.2273 494.0851 C 454.346 455.436 399.3184 486.0956 345.3635 482.1051 C 286.6224 478.6519 239.6166 449.2326 228.445 391.2564 C 222.5979 337.6261 252.0065 294.9749 222.6506 248.8312 C 182.6781 175.3964 86.9949 169.3639 0 187.8969 L 0 1024 L 729.494 1024 Z" fill="#fbfaf9"/>
</svg>