<?xml version="1.0" standalone="no"?>
<!-- Generator: Adobe Fireworks 10, Export SVG Extension by Aaron Beall (http://fireworks.abeall.com) . Version: 0.6.1  -->
<!DOCTYPE svg PUBLIC "-//W3C//DTD SVG 1.1//EN" "http://www.w3.org/Graphics/SVG/1.1/DTD/svg11.dtd">
<svg id="Untitled-Page%201" viewBox="0 0 61 61" style="background-color:#ffffff00" version="1.1"
	xmlns="http://www.w3.org/2000/svg" xmlns:xlink="http://www.w3.org/1999/xlink" xml:space="preserve"
	x="0px" y="0px" width="61px" height="61px"
>
	<defs>
	<clipPath id="mask1">
		<path d="M 0 30.5 C 0 47.3444 13.6549 61 30.5005 61 C 47.3451 61 61 47.3444 61 30.5 C 61 13.6556 47.3451 0 30.5005 0 C 13.6549 0 0 13.6556 0 30.5 Z" fill="none"/>
	</clipPath>
	</defs>
	<path d="M 61 30.5 C 61 47.3444 47.3451 61 30.5005 61 C 13.6549 61 0 47.3444 0 30.5 C 0 13.6556 13.6549 0 30.5005 0 C 47.3451 0 61 13.6556 61 30.5 Z" fill="#9ca6a2"/>
		<path d="M 0 30.5 C 0 47.3444 13.6549 61 30.5005 61 C 47.3451 61 61 47.3444 61 30.5 C 61 13.6556 47.3451 0 30.5005 0 C 13.6549 0 0 13.6556 0 30.5 Z" fill="none"/>
	<g clip-path="url(#mask1)">
		<g>
			<g>
				<path d="M 6.5528 54.9887 C 6.5528 54.9887 9.7024 43.3724 11.2816 39.3466 C 11.9895 37.5422 14.0739 33.3089 16.0066 33.209 C 20.0657 32.9966 27.0523 32.5276 27.0523 32.5276 C 27.0523 32.5276 26.8388 20.6489 26.8016 12.7089 C 26.7938 10.463 30.5426 8.1554 34.822 8.3502 C 37.0817 8.453 41.6284 10.5726 42.8914 12.4495 C 43.5728 13.4608 43.3046 17.3104 43.3046 17.3104 C 43.3046 17.3104 44.1142 17.8616 44.0398 18.263 C 43.984 18.5606 43.7197 18.7819 43.5454 19.0266 C 43.0265 19.755 43.8538 21.8345 43.4602 22.6354 C 43.142 23.2815 41.506 23.7221 40.7884 23.7828 C 38.3574 23.9904 38.2223 25.1721 38.0235 26.0796 C 37.673 27.6911 37.8316 32.9378 37.8316 32.9378 C 37.8316 32.9378 44.1896 33.3187 49.5157 34.0764 C 50.6729 34.2409 52.3031 35.592 52.2796 37.8536 C 52.2179 43.8218 54.1838 61.5218 54.1838 61.5218 L 6.6879 61.2643 L 6.5528 54.9887 Z" fill="#ebebd2"/>
				<path d="M 12.1726 61.5218 L 11.7457 55.7974 L 6.6879 55.1434 C 6.6879 55.1434 8.4385 38.4038 14.8758 33.6084 C 17.7884 31.4399 27.0523 32.5276 27.0523 32.5276 C 27.0523 32.5276 29.3511 35.3365 33.5786 35.731 C 36.5334 36.0071 37.8316 32.9378 37.8316 32.9378 C 37.8316 32.9378 46.5903 32.3807 49.9269 33.9668 C 52.5743 35.2288 52.6917 37.7439 52.6917 37.7439 L 54.4472 55.4792 L 49.3492 55.6701 L 48.5288 61.2643 L 12.1726 61.5218 Z" fill="#444965"/>
				<path d="M 28.1791 33.2247 C 29.167 33.349 32.2226 26.9177 30.7364 25.1427 C 29.0515 23.1308 30.709 21.1022 31.1506 20.0918 C 31.55 19.1578 31.6421 18.0496 31.6871 17.0186 C 31.7204 16.3069 31.9123 14.6875 32.722 14.3664 C 33.4102 14.0805 33.7412 14.6523 33.9986 15.0997 C 34.3306 15.6313 34.728 15.6098 35.1833 15.2338 C 35.6347 14.8951 35.897 14.3527 36.1212 13.8064 C 36.3866 13.1837 38.1332 11.539 40.1461 12.6139 C 41.0195 13.08 42.2217 13.0428 43.19 12.6893 C 43.7941 12.4779 44.8006 11.3177 44.9053 10.7283 C 45.0062 10.2564 44.9739 8.6762 42.6966 6.8768 C 41.8066 6.1719 40.0208 4.9833 37.7445 5.5972 C 36.9329 5.8155 34.9748 4.9187 31.4492 5.4777 C 24.5008 6.5811 22.2872 13.824 22.0395 14.9245 C 21.5872 17.0079 13.8996 32.2202 14.7093 34.1665 C 15.9419 37.1369 21.1916 33.1052 21.7849 34.9302 C 22.3019 36.525 26.9602 34.846 28.1791 33.2247 L 28.1791 33.2247 Z" fill="#ebea85"/>
				<path d="M 42.2217 16.207 C 42.2178 16.1052 42.1444 16.0406 42.0592 16.023 C 41.8967 15.9916 41.6519 15.9828 41.5051 16.0249 C 41.4228 16.0494 41.3514 16.1091 41.3562 16.2119 L 41.3562 16.2119 C 41.3582 16.3127 41.4453 16.393 41.5266 16.4244 C 41.6754 16.4811 41.9123 16.4753 42.0817 16.4204 C 42.163 16.395 42.2256 16.3088 42.2217 16.207 L 42.2217 16.207 Z" fill="#d1c8a3"/>
				<path d="M 40.1716 14.7757 C 40.2029 14.8834 40.3047 14.9519 40.3987 14.9284 L 42.7406 14.3253 C 42.8346 14.3018 42.8846 14.1941 42.8542 14.0854 L 42.8542 14.0854 C 42.8238 13.9768 42.7211 13.9082 42.6271 13.9317 L 40.2842 14.5338 C 40.1912 14.5583 40.1403 14.666 40.1716 14.7757 L 40.1716 14.7757 Z" fill="#d1c8a3"/>
				<path opacity="0.4" d="M 33.8743 19.1461 C 33.8097 20.5853 34.9229 21.8042 36.3611 21.8678 C 37.7993 21.9344 39.0192 20.8202 39.0848 19.3811 C 39.1485 17.9419 38.0353 16.7239 36.598 16.6574 C 35.1579 16.5937 33.9409 17.7089 33.8743 19.1461 Z" fill="#e4d2af"/>
			</g>
		</g>
	</g>
</svg>