<?xml version="1.0" standalone="no"?>
<!-- Generator: Adobe Fireworks 10, Export SVG Extension by Aaron Beall (http://fireworks.abeall.com) . Version: 0.6.1  -->
<!DOCTYPE svg PUBLIC "-//W3C//DTD SVG 1.1//EN" "http://www.w3.org/Graphics/SVG/1.1/DTD/svg11.dtd">
<svg id="Untitled-Page%201" viewBox="0 0 251 393" style="background-color:#ffffff00" version="1.1"
	xmlns="http://www.w3.org/2000/svg" xmlns:xlink="http://www.w3.org/1999/xlink" xml:space="preserve"
	x="0px" y="0px" width="251px" height="393px"
>
	<path d="M 245.4537 254.4999 C 235.34 229.4571 219.1295 233.0842 197.8665 224.1949 C 176.5908 215.3075 165.2636 196.003 162.8444 173.8547 C 160.6267 153.5561 165.7056 132.4604 145.659 117.8425 C 125.6027 103.212 104.7318 114.8183 84.2677 113.3071 C 61.9888 111.9999 44.1609 100.8638 39.923 78.9175 C 37.7062 58.6169 48.8604 42.4713 37.7268 25.0047 C 29.7828 10.4386 16.0326 2.8877 0 0 L 0 393 C 114.2676 376.4388 234.2595 341.2979 250.7223 283.6517 C 252.1744 278.5651 247.5707 259.9738 245.4537 254.4999 Z" fill="#fbfaf9"/>
</svg>