<?xml version="1.0" standalone="no"?>
<!-- Generator: Adobe Fireworks 10, Export SVG Extension by Aaron Beall (http://fireworks.abeall.com) . Version: 0.6.1  -->
<!DOCTYPE svg PUBLIC "-//W3C//DTD SVG 1.1//EN" "http://www.w3.org/Graphics/SVG/1.1/DTD/svg11.dtd">
<svg id="Untitled-Page%201" viewBox="0 0 973 642" style="background-color:#ffffff00" version="1.1"
	xmlns="http://www.w3.org/2000/svg" xmlns:xlink="http://www.w3.org/1999/xlink" xml:space="preserve"
	x="0px" y="0px" width="973px" height="642px"
>
	<path d="M 973.0001 41.5117 C 860.1751 70.3418 749.8745 143.9072 638.3175 148.2148 C 594.6075 148.9121 552.0562 133.8496 539.511 89.291 C 533.6741 61.0918 543.6246 34.0859 513.5394 12.0137 C 498.339 2.9395 478.5823 1.4609 458.854 0 C 367.1739 5.0605 253.5245 91.7695 178.3322 141.6738 C 108.5676 172.1543 -38.0802 169.1582 9.2179 279.7461 C 36.3999 341.2656 88.9976 380.874 137.6643 420.1953 C 182.3815 459.2246 222.5737 505.8438 272.4175 529.3857 C 306.763 547.8174 345.6491 558.6602 385.4261 557.6494 C 453.4137 550.8223 444.524 510.501 491.1774 470.3535 C 542.09 426.5723 604.4869 494.6836 637.0623 536.7744 C 677.2544 583.3809 700.7584 640.6426 772.1143 642 C 803.9814 640.418 843.7595 639.4258 861.6102 612.9961 C 870.9717 593.8721 864.8564 569.6113 870.2654 550.1914 C 889.1213 491.0293 934.153 503.0449 973.0001 528.8984 L 973.0001 41.5117 Z" fill="#f8f8f7"/>
</svg>