<?xml version="1.0" standalone="no"?>
<!-- Generator: Adobe Fireworks 10, Export SVG Extension by Aaron Beall (http://fireworks.abeall.com) . Version: 0.6.1  -->
<!DOCTYPE svg PUBLIC "-//W3C//DTD SVG 1.1//EN" "http://www.w3.org/Graphics/SVG/1.1/DTD/svg11.dtd">
<svg id="Untitled-Page%201" viewBox="0 0 26 26" style="background-color:#ffffff00" version="1.1"
	xmlns="http://www.w3.org/2000/svg" xmlns:xlink="http://www.w3.org/1999/xlink" xml:space="preserve"
	x="0px" y="0px" width="26px" height="26px"
>
	<g>
		<path d="M 13 0 C 5.8203 0 0 5.8203 0 13 C 0 20.1807 5.8203 26 13 26 C 20.1802 26 26 20.1807 26 13 C 26 5.8203 20.1802 0 13 0 L 13 0 ZM 13 23.9688 C 6.9419 23.9688 2.0313 19.0586 2.0313 13 C 2.0313 6.9424 6.9419 2.0313 13 2.0313 C 19.0581 2.0313 23.9688 6.9424 23.9688 13 C 23.9688 19.0586 19.0581 23.9688 13 23.9688 L 13 23.9688 ZM 13 23.9688 L 13 23.9688 Z" fill="#8ecdc5"/>
		<path d="M 16.085 11.0098 L 13.8237 11.0098 L 13.8237 9.3594 C 13.8237 8.8535 14.3472 8.7363 14.5918 8.7363 L 16.0527 8.7363 L 16.0527 6.5088 L 14.3784 6.5 C 12.0942 6.5 11.5728 8.1611 11.5728 9.2256 L 11.5728 11.0098 L 9.915 11.0098 L 9.915 13.3047 L 11.5728 13.3047 L 11.5728 19.5 L 13.8237 19.5 L 13.8237 13.3047 L 15.7358 13.3047 L 16.085 11.0098 ZM 16.085 11.0098 L 16.085 11.0098 Z" fill="#8ecdc5"/>
	</g>
</svg>