<?xml version="1.0" standalone="no"?>
<!-- Generator: Adobe Fireworks 10, Export SVG Extension by Aaron Beall (http://fireworks.abeall.com) . Version: 0.6.1  -->
<!DOCTYPE svg PUBLIC "-//W3C//DTD SVG 1.1//EN" "http://www.w3.org/Graphics/SVG/1.1/DTD/svg11.dtd">
<svg id="Untitled-Page%201" viewBox="0 0 26 26" style="background-color:#ffffff00" version="1.1"
	xmlns="http://www.w3.org/2000/svg" xmlns:xlink="http://www.w3.org/1999/xlink" xml:space="preserve"
	x="0px" y="0px" width="26px" height="26px"
>
	<g>
		<path d="M 18.9751 0 L 7.0254 0 C 3.1519 0 0 3.1514 0 7.0254 L 0 18.9746 C 0 22.8486 3.1519 26 7.0254 26 L 18.9751 26 C 22.8486 26 26 22.8486 26 18.9746 L 26 7.0254 C 26 3.1514 22.8486 0 18.9751 0 L 18.9751 0 ZM 23.8994 18.9746 C 23.8994 21.6904 21.6904 23.8994 18.9751 23.8994 L 7.0254 23.8994 C 4.3101 23.8994 2.1006 21.6904 2.1006 18.9746 L 2.1006 7.0254 C 2.1006 4.3096 4.3101 2.1006 7.0254 2.1006 L 18.9751 2.1006 C 21.6904 2.1006 23.8994 4.3096 23.8994 7.0254 L 23.8994 18.9746 ZM 23.8994 18.9746 L 23.8994 18.9746 Z" fill="#8ecdc5"/>
		<path d="M 18.8188 12.0928 C 18.6343 10.8467 18.0654 9.7168 17.1743 8.8262 C 16.2832 7.9346 15.1533 7.3662 13.9072 7.1816 C 13.3394 7.0977 12.7642 7.0977 12.1968 7.1816 C 10.6563 7.4102 9.2969 8.2246 8.3691 9.4756 C 7.4414 10.7256 7.0562 12.2637 7.2852 13.8037 C 7.5132 15.3438 8.3276 16.7031 9.5786 17.6309 C 10.5942 18.3848 11.7979 18.7803 13.0396 18.7803 C 13.3271 18.7803 13.6172 18.7588 13.9072 18.7158 C 15.4473 18.4873 16.8066 17.6729 17.7344 16.4219 C 18.6621 15.1709 19.0474 13.6338 18.8188 12.0928 L 18.8188 12.0928 ZM 13.5991 16.6377 C 12.6133 16.7842 11.6304 16.5371 10.8301 15.9443 C 10.0298 15.3506 9.5088 14.4814 9.3628 13.4961 C 9.2163 12.5098 9.4629 11.5273 10.0562 10.7266 C 10.6499 9.9268 11.5195 9.4053 12.5049 9.2598 C 12.686 9.2324 12.8691 9.2188 13.0518 9.2188 C 13.2344 9.2188 13.417 9.2324 13.5986 9.2598 C 15.2354 9.502 16.498 10.7646 16.7412 12.4014 C 17.043 14.4355 15.6333 16.3359 13.5991 16.6377 L 13.5991 16.6377 ZM 13.5991 16.6377 L 13.5991 16.6377 Z" fill="#8ecdc5"/>
		<path d="M 20.3149 5.6855 C 20.1191 5.4893 19.8486 5.3779 19.5723 5.3779 C 19.2959 5.3779 19.0254 5.4893 18.8301 5.6855 C 18.6343 5.8809 18.522 6.1514 18.522 6.4277 C 18.522 6.7051 18.6343 6.9746 18.8301 7.1709 C 19.0254 7.3662 19.2959 7.4785 19.5723 7.4785 C 19.8486 7.4785 20.1191 7.3662 20.3149 7.1709 C 20.5107 6.9746 20.623 6.7041 20.623 6.4277 C 20.623 6.1514 20.5107 5.8809 20.3149 5.6855 L 20.3149 5.6855 ZM 20.3149 5.6855 L 20.3149 5.6855 Z" fill="#8ecdc5"/>
	</g>
</svg>