<?xml version="1.0" standalone="no"?>
<!-- Generator: Adobe Fireworks 10, Export SVG Extension by Aaron Beall (http://fireworks.abeall.com) . Version: 0.6.1  -->
<!DOCTYPE svg PUBLIC "-//W3C//DTD SVG 1.1//EN" "http://www.w3.org/Graphics/SVG/1.1/DTD/svg11.dtd">
<svg id="Untitled-Page%201" viewBox="0 0 75 58" style="background-color:#ffffff00" version="1.1"
	xmlns="http://www.w3.org/2000/svg" xmlns:xlink="http://www.w3.org/1999/xlink" xml:space="preserve"
	x="0px" y="0px" width="75px" height="58px"
>
	<g>
		<path d="M 74 36.001 C 74 24.4023 64.5234 15 52.835 15 C 41.1465 15 31.6709 24.4023 31.6709 36.001 C 31.6709 47.5986 41.1465 57 52.835 57 C 64.5234 57 74 47.5986 74 36.001 L 74 36.001 Z" fill="#414141"/>
		<path d="M 24.123 56.6582 L 1.0078 56.6582 L 1.0078 22.5 L 24.123 22.5 L 24.123 56.6582 Z" fill="#414141"/>
		<path d="M 1 23.5449 L 24.1699 23.5449 C 24.1875 23.1719 24.1973 22.7988 24.1973 22.4219 C 24.1973 9.9434 14.002 1.2012 1.4238 1.2012 C 1.2813 1.2012 1.1416 1.209 1 1.2129 L 1 23.5449 Z" fill="#414141"/>
		<path d="M 70.4824 4.7354 L 70.4814 4.7344 C 56.7324 -3.0391 39.2344 1.7168 31.3984 15.3584 C 23.5625 29.002 28.3574 46.3652 42.1074 54.1387 L 70.4824 4.7354 Z" fill="#8ecdc5"/>
	</g>
</svg>