<?xml version="1.0" standalone="no"?>
<!-- Generator: Adobe Fireworks 10, Export SVG Extension by Aaron Beall (http://fireworks.abeall.com) . Version: 0.6.1  -->
<!DOCTYPE svg PUBLIC "-//W3C//DTD SVG 1.1//EN" "http://www.w3.org/Graphics/SVG/1.1/DTD/svg11.dtd">
<svg id="Untitled-Page%201" viewBox="0 0 780 642" style="background-color:#ffffff00" version="1.1"
	xmlns="http://www.w3.org/2000/svg" xmlns:xlink="http://www.w3.org/1999/xlink" xml:space="preserve"
	x="0px" y="0px" width="780px" height="642px"
>
	<path d="M 601.7275 141.6738 C 526.5605 91.7695 412.9492 5.0605 321.3008 0 C 301.5781 1.4609 281.8281 2.9395 266.6328 12.0137 C 236.5576 34.0859 246.5049 61.0918 240.6699 89.291 C 228.1289 133.8496 185.5918 148.9121 141.8965 148.2148 C 94.4678 146.3828 47.2656 132.0215 0 113.9033 L 0 641.5996 C 2.7578 641.7383 5.4805 641.8672 8.1445 642 C 79.4766 640.6426 102.9727 583.3809 143.1514 536.7744 C 175.7168 494.6836 238.0918 426.5723 288.9873 470.3535 C 335.625 510.501 326.7383 550.8223 394.7031 557.6494 C 434.4668 558.6602 473.3398 547.8174 507.6738 529.3857 C 557.501 505.8438 597.6797 459.2246 642.3828 420.1953 C 691.0322 380.874 743.6123 341.2656 770.7852 279.7461 C 818.0674 169.1582 671.4688 172.1543 601.7275 141.6738 Z" fill="#f8f8f7"/>
</svg>