<?xml version="1.0" standalone="no"?>
<!-- Generator: Adobe Fireworks 10, Export SVG Extension by Aaron Beall (http://fireworks.abeall.com) . Version: 0.6.1  -->
<!DOCTYPE svg PUBLIC "-//W3C//DTD SVG 1.1//EN" "http://www.w3.org/Graphics/SVG/1.1/DTD/svg11.dtd">
<svg id="Untitled-Page%201" viewBox="0 0 73 109" style="background-color:#ffffff00" version="1.1"
	xmlns="http://www.w3.org/2000/svg" xmlns:xlink="http://www.w3.org/1999/xlink" xml:space="preserve"
	x="0px" y="0px" width="73px" height="109px"
>
	<path d="M 52.7637 109 C 52.552 104.1619 49.0265 103.6609 46.4109 98.8835 C 43.2141 93.0405 51.0882 88.3845 55.8308 86.0887 C 61.1674 83.1472 67.1934 82.0433 68.7869 75.1444 C 69.2863 72.0189 70.005 68.1378 67.8117 65.8617 C 66.1518 64.5582 63.6767 64.6532 61.9076 63.7284 C 54.561 59.5382 61.259 53.3125 65.8456 50.1517 C 70.5404 46.6132 74.7515 43.3428 72.2588 36.4791 C 70.7199 31.9386 64.6451 31.8016 63.86 27.4802 C 62.9647 23.5385 67.722 18.3824 69.0347 13.8566 C 70.0801 8.8443 68.9332 1.5549 63.1861 0.2857 C 51.6928 -2.2527 50.1656 12.8467 46.5845 19.5734 C 42.2505 26.0809 38.8196 23.8517 33.1339 20.9649 C 27.8247 18.1857 23.9432 20.3269 20.2666 24.5699 C 7.4996 40.4776 21.1638 60.8318 18.2312 77.9725 C 17.4032 82.2293 15.0724 86.0496 10.5024 86.351 C 7.6518 86.3373 5.24 84.8156 2.4859 87.2826 C 1.2961 88.5714 0.748 90.4581 0.2029 92.3428 C -0.5491 97.217 0.8904 103.2078 2.8857 109 L 52.7637 109 Z" fill="#8ed0c6"/>
</svg>